<?xml version="1.0" encoding="utf-8"?>
<!-- Generator: Adobe Illustrator 28.1.0, SVG Export Plug-In . SVG Version: 6.00 Build 0)  -->
<svg version="1.1" id="Calque_1" xmlns="http://www.w3.org/2000/svg" xmlns:xlink="http://www.w3.org/1999/xlink" x="0px" y="0px"
	 viewBox="0 0 160.81 165.33" style="enable-background:new 0 0 160.81 165.33;" xml:space="preserve">
<path d="M80.4,10.8L9.33,89.18l71.07,65.09l71.07-65.09L80.4,10.8z M80.4,93.67L45.13,76.19l33.64-57.63l1.63-1.8l1.57,1.73
	l33.39,57.7L80.4,93.67z M43.04,75.8l-25.17,9.92l54.4-60L43.04,75.8z M43.68,77.7L79.4,95.41v52.52L15.04,88.98L43.68,77.7z
	 M81.4,95.4l35.41-17.7l28.94,11.29L81.4,147.93V95.4z M117.45,75.8L88.36,25.53l54.61,60.23L117.45,75.8z"/>
</svg>
