<?xml version="1.0" encoding="utf-8"?>
<!-- Generator: Adobe Illustrator 28.1.0, SVG Export Plug-In . SVG Version: 6.00 Build 0)  -->
<svg version="1.1" id="Calque_1" xmlns="http://www.w3.org/2000/svg" xmlns:xlink="http://www.w3.org/1999/xlink" x="0px" y="0px"
	 viewBox="0 0 160.81 165.33" style="enable-background:new 0 0 160.81 165.33;" xml:space="preserve">
<path d="M124.86,30.8L103.5,16.35H57.62L35.95,30.79L13.14,72.25v27.16l22.91,39.05l21.72,10.53h45.59l21.41-10.54l22.9-39.99V72.25
	L124.86,30.8z M143.65,73.25l-27.98,25.7L81.4,77.16V42.43l40.38-8.87l0.03,0.02L143.65,73.25z M102.41,144.99H58.73L46.8,100.64
	l33.6-21.74l34.22,21.75L102.41,144.99z M58.83,20.35h43.44L119.5,32L80.4,40.6l-39.07-8.59L58.83,20.35z M38.99,33.58l0.04-0.03
	l40.38,8.87v34.74L45.75,98.95L17.16,73.23L38.99,33.58z M17.14,98.32V75.9l27.62,24.84l11.59,43.11l-17.46-8.47L17.14,98.32z
	 M121.9,135.4l-17.1,8.42l11.87-43.07l26.99-24.79v21.44L121.9,135.4z"/>
</svg>
