<?xml version="1.0" encoding="utf-8"?>
<!-- Generator: Adobe Illustrator 28.1.0, SVG Export Plug-In . SVG Version: 6.00 Build 0)  -->
<svg version="1.1" id="Calque_1" xmlns="http://www.w3.org/2000/svg" xmlns:xlink="http://www.w3.org/1999/xlink" x="0px" y="0px"
	 viewBox="0 0 160.81 165.33" style="enable-background:new 0 0 160.81 165.33;" xml:space="preserve">
<path d="M79.94,11.43L19.29,49.56v69.38l61.11,34.92l61.11-34.92V48.65L79.94,11.43z M80.4,149.25l-1.28-0.73l-35.69-41.74h75.17
	l-36.79,41.67L80.4,149.25z M24.29,51.14l54.13-9.77l-36.94,62.08l-18.19-50.2v-1.48L24.29,51.14z M80.42,41.93l38.62,62.85H43.02
	L80.42,41.93z M120.55,103.43L82.4,41.34l54.1,8.95l1.01,0.61v1.71L120.55,103.43z M81.39,39.15l-0.38-22.4l50.87,30.75L81.39,39.15
	z M79.39,39.17l-50.56,9.12l50.18-31.55L79.39,39.17z M40.04,105.34l-16.75,10.06V59.12L40.04,105.34z M41.05,107.07l32.93,38.51
	l-49.73-28.42L41.05,107.07z M121,107.08l15.63,10.04L87.2,145.37L121,107.08z M122.01,105.36l15.5-46.43v56.38L122.01,105.36z"/>
</svg>
