<?xml version="1.0" encoding="UTF-8"?>
<svg id="Calque_1" data-name="Calque 1" xmlns="http://www.w3.org/2000/svg" version="1.1" viewBox="0 0 400 400">
  <path class="cls-1" d="M199.26,208.87c35.44,0,55.88-30.24,55.88-38.81s-20.7-32.87-55.88-32.87-54.46,24.17-54.46,32.87,19.03,38.81,54.46,38.81ZM199.3,138.66c18.59,0,31.72,6.77,39.46,12.45,9.38,6.89,14.29,14.78,14.29,19.01,0,4.47-5.29,13.8-14.15,21.69-7.84,6.99-21.08,15.32-39.61,15.32-33.25,0-52.42-28.09-52.42-37.01,0-8.09,18.02-31.47,52.42-31.47Z"/>
  <path class="cls-1" d="M161.36,190.71c7.36,6.81,19.92,14.93,37.94,14.93,33.24,0,52.27-27.92,52.27-35.52,0-3.76-4.8-11.29-13.69-17.81-7.56-5.55-20.4-12.17-38.58-12.17s-30.62,6.61-37.9,12.16c-8.46,6.45-13.02,13.99-13.02,17.82,0,3.46,4.13,12.39,12.99,20.59ZM193.86,152.29c.66-.07,1.32-.14,2-.19l.15-.3h0l3.53-7.03.44-.88.44.88,1.47,2.92,2.27,4.53c1.07.11,2.12.25,3.15.42,7.33,2.48,12.14,8.7,12.14,16.58,0,.04,0,.07,0,.11h-6.82v-1.96c-.12.01-.23.03-.36.04-.64.1-1.23.21-1.78.31v8.43l-9.39,5.42-1.14.66-10.53-6.08v-12.16l10.53-6.08,2.94,1.7c.31-.79.6-1.49.78-2.02l-3.72-2.15-12.67,7.32v6.56h-6.77s0-.07,0-.11c0-8.31,5.35-14.76,13.36-16.94ZM219.3,171.58c-1.12,9.27-8.77,16.56-18.21,17.09v-4.6l11.53-6.66v-5.83h6.68ZM198.85,184.09v4.57c-9.44-.54-17.09-7.82-18.21-17.09h6.63v5.83l11.58,6.69ZM176.72,157.56c-1.87,3.39-2.93,7.32-2.93,11.67,0,14.46,11.72,26.18,26.18,26.18s26.18-11.72,26.18-26.18c0-4.05-.92-7.74-2.56-10.97,7.66,4.23,12.41,9.64,12.41,13.04,0,2.27-2,6.15-5.49,10.21l2.8,8.45-8.56-2.84c-5.49,4.53-12.66,8.42-20.79,9.55h.23l-4.24,8.45-4.17-8.3c-8.84-.91-16.42-5.21-21.98-10.15l-8.38,2.78,2.87-8.65c-2.95-3.81-4.58-7.37-4.58-9.51,0-3.59,4.91-9.42,12.99-13.74Z"/>
  <path class="cls-1" d="M202.36,161.07l-2.41-1.39-9.02,5.21v10.41l9.02,5.21,9.02-5.21v-7.25c-2.85.6-4.44.9-6.27-.93-1.49-1.49-1.06-3.9-.34-6.05Z"/>
  <path class="cls-1" d="M235.4,269.01c-17.72,30.69-1.75,63.51,5.67,67.79,7.54,4.35,38.81-1.49,56.4-31.96,17.59-30.47,6.3-59.25-1.23-63.6-7.42-4.29-43.12-2.93-60.84,27.76ZM296.19,304.14c-9.29,16.1-21.73,24.09-30.52,27.95-10.66,4.68-19.94,4.99-23.61,2.87-3.87-2.23-9.31-11.48-11.71-23.1-2.13-10.29-2.73-25.92,6.54-41.96,16.62-28.79,50.54-31.35,58.26-26.89,7,4.04,18.24,31.34,1.04,61.13Z"/>
  <path class="cls-1" d="M238.17,270.65c-16.62,28.79-1.96,59.22,4.63,63.03,3.26,1.88,12.17,1.49,22.26-2.95,8.59-3.78,20.73-11.58,29.83-27.33,9.07-15.71,9.58-29.82,8.42-38.9-1.35-10.55-5.6-18.27-8.92-20.19-2.99-1.73-12.79-2.62-24.33.95-9.58,2.97-22.89,9.78-31.9,25.39ZM290.33,302.05l-3.27-.19-5.06-.3c-.63.87-1.27,1.71-1.94,2.52-5.81,5.1-13.6,6.16-20.43,2.22-.03-.02-.06-.04-.09-.06l3.41-5.91,1.69.98c.05-.11.09-.22.14-.34.23-.6.44-1.17.62-1.7l-1.39-.8-1.94-1.12-3.98-2.3v-10.84s0-1.32,0-1.32l10.53-6.08,3.98,2.3,1.94,1.12,4.61,2.66v12.16l-2.94,1.7c.53.66.99,1.27,1.36,1.69l3.72-2.15v-14.63l-5.68-3.28,3.39-5.87s.06.03.1.05c7.2,4.15,10.11,12.02,7.99,20.04-.27.61-.54,1.21-.84,1.82l.18.28h0s4.32,6.57,4.32,6.57l.54.83-.99-.06ZM255.96,282.99v13.32l5.05,2.92-3.34,5.78c-7.47-5.6-9.95-15.88-5.7-24.32l3.98,2.3ZM253.1,278.75c5.18-7.9,15.32-10.89,23.91-7.22l-3.31,5.74-5.05-2.92-11.58,6.69-3.96-2.29ZM285.7,257.02c3.1,1.79,5.7,8.96,5.4,18.12-2-3.31-4.87-6.2-8.64-8.37-12.52-7.23-28.54-2.94-35.77,9.58-7.23,12.52-2.94,28.54,9.58,35.77,3.5,2.02,7.16,3.07,10.77,3.27-7.49,4.51-14.56,5.93-17.5,4.23-1.97-1.14-4.33-4.8-6.1-9.86l-8.72-1.8,6.73-5.99c-1.17-7.02-.96-15.18,2.12-22.78l-.12.2-5.2-7.9,9.27.54c5.21-7.2,12.72-11.61,19.78-13.96l1.78-8.65,6.06,6.81c4.77-.65,8.68-.28,10.53.79Z"/>
  <path class="cls-1" d="M277.66,283.78l-9.02-5.21-9.02,5.21v10.41l6.28,3.62c.91-2.76,1.44-4.29,3.94-4.96,2.03-.54,3.91,1.04,5.41,2.73l2.41-1.39v-10.41Z"/>
  <path class="cls-1" d="M165.25,270.23c-17.72-30.69-54.12-33.27-61.55-28.99-7.54,4.35-18.12,34.36-.53,64.83,17.59,30.47,48.16,35.08,55.7,30.73,7.42-4.29,24.09-35.88,6.38-66.57ZM157.89,334.97c-7,4.04-36.26.12-53.46-29.66-9.29-16.1-10-30.86-8.95-40.4,1.27-11.57,5.65-19.77,9.32-21.88,3.87-2.23,14.6-2.32,25.86,1.41,9.97,3.3,23.81,10.6,33.07,26.64,16.62,28.79,1.88,59.44-5.85,63.9Z"/>
  <path class="cls-1" d="M162.44,271.81c-16.62-28.79-50.31-31.31-56.9-27.5-3.26,1.88-7.38,9.8-8.58,20.76-1.02,9.33-.34,23.75,8.76,39.5,9.07,15.71,21.04,23.21,29.48,26.74,9.81,4.1,18.63,4.28,21.94,2.37,2.99-1.73,8.67-9.77,11.34-21.54,2.22-9.78,2.97-24.71-6.04-40.32ZM118.96,303.21c-.39-.53-.78-1.08-1.16-1.64l-.33.02h0s-7.85.46-7.85.46l-.99.06.54-.83,1.8-2.73,2.78-4.23c-.44-.98-.84-1.96-1.21-2.94-1.52-7.58,1.47-14.86,8.29-18.8.03-.02.06-.03.1-.05l3.41,5.91-1.69.98c.07.1.15.18.22.29.4.5.79.96,1.16,1.38l1.39-.8,1.94-1.12,3.98-2.3,9.39,5.42,1.14.66v12.16s-3.98,2.3-3.98,2.3l-1.94,1.12-4.61,2.66-10.53-6.08v-3.4c-.84.13-1.59.22-2.14.34v4.29l12.67,7.32,5.68-3.28,3.39,5.87s-.06.04-.09.06c-7.2,4.15-15.46,2.75-21.35-3.1ZM142.86,281.05l-11.53-6.66-5.05,2.92-3.34-5.78c8.59-3.67,18.72-.68,23.91,7.22l-3.98,2.3ZM147.96,280.69c4.25,8.44,1.77,18.71-5.7,24.32l-3.31-5.74,5.05-2.92v-13.37l3.96-2.29ZM156.43,311.06c-1.82,4.45-4.09,7.66-5.95,8.73-3.11,1.79-10.61.46-18.39-4.38,3.87-.07,7.81-1.12,11.57-3.29,12.52-7.23,16.81-23.24,9.58-35.77-7.23-12.52-23.24-16.81-35.77-9.58-3.5,2.02-6.24,4.67-8.22,7.7-.16-8.75,2.14-15.57,5.08-17.27,1.97-1.14,6.32-1.35,11.59-.36l5.92-6.65,1.82,8.83c6.66,2.49,13.63,6.76,18.67,13.22l-.12-.2,9.44-.55-5.1,7.76c3.63,8.12,3.7,16.82,2.2,24.11l6.6,5.87-8.93,1.84Z"/>
  <path class="cls-1" d="M140.35,294.23v-10.41l-9.02-5.21-6.28,3.62c1.94,2.17,3,3.39,2.33,5.89-.54,2.03-2.85,2.87-5.07,3.32v2.79l9.02,5.21,9.02-5.21Z"/>
  <path class="cls-1" d="M284.55,201.31L206.07,61.12l-6.12-10.92-6.12,10.92-78.48,140.2-82.17,138.06-6.4,10.76,12.52-.17,160.65-2.13,160.65,2.13,12.52.17-6.4-10.76-82.17-138.06ZM284.59,215.09l-63.67,36.09-4.18-7.02,63.67-36.09,4.18,7.02ZM213.68,238.85l-3.97-7.1,63.66-36.09,3.97,7.1-63.66,36.09ZM186.31,238.73l-63.37-36.61,3.9-6.96,63.37,36.61-3.9,6.96ZM183.24,244.04l-4.11,6.9-63.37-36.61,4.11-6.9,63.37,36.61ZM196.89,267.69v73.18l-8.1.11v-73.18l8.1-.11ZM203.02,267.69l8.03.11v73.18l-8.03-.11v-73.18ZM199.96,64.54l72.55,129.6-63.66,36.09-8.89-15.88-8.9,15.89-63.37-36.61,72.27-129.09ZM39.21,342.96l75.66-127.12,63.37,36.61-9.29,15.61,18.09-.24v73.18l-147.82,1.96ZM212.8,341v-73.18l18.16.24-9.15-15.37,63.67-36.09,75.21,126.37-147.9-1.96Z"/>
  <polygon class="cls-1" points="314.83 245.17 315.89 244.54 314.19 241.69 315.71 240.78 317.23 243.34 318.29 242.71 316.77 240.15 318.24 239.28 319.91 242.08 320.96 241.45 318.6 237.48 312.44 241.15 314.83 245.17"/>
  <rect class="cls-1" x="315.18" y="244.1" width="7.17" height="1.35" transform="translate(-80.34 197.45) rotate(-30.76)"/>
  <path class="cls-1" d="M322.24,245.92l-4.12,2.45-.48-.81-1.02.61,1.51,2.54c.49.83,1.08,1.33,1.75,1.51s1.43.03,2.26-.47l1.16-.69c.83-.49,1.32-1.08,1.49-1.76.16-.68,0-1.44-.49-2.26l-1.51-2.54-1.02.61.48.81ZM322.9,247.11l.35.58c.28.47.36.89.25,1.25-.11.36-.4.68-.85.95l-1.23.73c-.45.27-.86.36-1.23.29-.38-.07-.7-.34-.98-.81l-.35-.58,4.05-2.41Z"/>
  <path class="cls-1" d="M322.48,252.69c-.79.47-1.27,1.06-1.42,1.77-.15.71,0,1.46.46,2.23.46.78,1.04,1.26,1.74,1.47.7.21,1.44.07,2.24-.4l1.48-.88c.79-.47,1.27-1.06,1.42-1.78.15-.71,0-1.45-.46-2.23-.46-.78-1.04-1.27-1.74-1.47-.7-.2-1.44-.07-2.24.4l-1.48.88ZM325.91,252.71c.4.09.72.35.98.78.26.43.33.85.22,1.24-.11.39-.38.71-.8.96l-1.55.92c-.42.25-.83.33-1.23.24-.4-.09-.72-.35-.98-.79-.25-.43-.33-.84-.22-1.23.11-.39.37-.72.79-.97l1.55-.92c.42-.25.83-.33,1.23-.24Z"/>
  <polygon class="cls-1" points="326.13 264.17 327.19 263.54 325.51 260.72 330.62 257.68 329.93 256.52 323.76 260.18 326.13 264.17"/>
  <path class="cls-1" d="M328.86,263.41c-.79.47-1.27,1.06-1.42,1.77-.15.71,0,1.46.46,2.23s1.04,1.26,1.74,1.47c.7.21,1.44.07,2.24-.4l1.48-.88c.79-.47,1.27-1.06,1.42-1.78.15-.71,0-1.45-.46-2.23-.46-.78-1.04-1.27-1.74-1.47-.7-.2-1.44-.07-2.24.4l-1.48.88ZM332.3,263.44c.4.09.72.36.98.78.26.43.33.85.22,1.24-.11.39-.38.71-.8.96l-1.55.92c-.42.25-.83.33-1.23.24s-.72-.35-.98-.79c-.25-.43-.33-.84-.22-1.23.11-.39.37-.72.79-.97l1.55-.92c.42-.25.83-.33,1.23-.24Z"/>
  <polygon class="cls-1" points="330.83 272.06 336.2 268.86 336.3 269.02 331.65 273.44 332.97 275.65 339.14 271.98 338.45 270.84 333.08 274.04 332.99 273.88 337.63 269.46 336.32 267.24 330.15 270.91 330.83 272.06"/>
  <path class="cls-1" d="M338.63,277.03c-.14.3-.19.65-.15,1.03.04.39.13.82.29,1.3l.08.23c.1.3.17.56.21.79s.04.42,0,.58-.16.29-.33.39c-.25.15-.51.17-.78.07-.28-.1-.53-.35-.77-.75-.23-.39-.33-.76-.28-1.1.05-.34.26-.62.63-.84l.25-.15-.68-1.15-.25.15c-.45.27-.77.6-.96.99s-.27.82-.22,1.29c.05.47.21.94.49,1.41.28.48.61.84.98,1.09.37.25.75.39,1.15.41.4.02.79-.08,1.16-.3.37-.22.63-.5.76-.82.13-.33.18-.69.13-1.11-.05-.41-.15-.87-.32-1.36l-.08-.23c-.09-.28-.15-.52-.18-.72-.02-.2,0-.37.05-.51s.16-.26.32-.35c.23-.14.46-.16.69-.07.23.09.45.31.66.66.14.24.23.46.26.67.03.21,0,.4-.08.58-.09.18-.25.34-.49.47l-.26.16.68,1.14.26-.16c.45-.27.76-.59.94-.96s.24-.78.19-1.21c-.05-.43-.21-.87-.47-1.31-.26-.44-.56-.78-.9-1.02-.34-.24-.69-.37-1.07-.39-.37-.02-.75.08-1.12.31-.38.22-.63.49-.77.79Z"/>
  <polygon class="cls-1" points="339.12 285.98 339.81 287.14 341.93 285.88 347.22 285.57 346.45 284.27 343.03 284.54 342.94 284.39 344.81 281.51 344.04 280.21 341.24 284.72 339.12 285.98"/>
  <path class="cls-1" d="M345.86,287.09c-.38.22-.63.49-.77.79s-.19.65-.15,1.03c.04.39.13.82.29,1.3l.08.23c.1.3.17.56.21.79s.04.42,0,.58c-.05.16-.16.29-.33.39-.25.15-.51.17-.78.07-.28-.1-.53-.35-.77-.75-.23-.39-.33-.76-.28-1.1.05-.34.26-.62.63-.84l.25-.15-.68-1.15-.25.15c-.45.27-.77.6-.96.99-.19.39-.27.82-.22,1.29.05.47.21.94.49,1.41.28.48.61.84.98,1.09s.75.39,1.15.41c.4.02.79-.08,1.16-.3.38-.22.63-.5.76-.82s.18-.69.13-1.11c-.05-.41-.15-.87-.32-1.36l-.08-.23c-.09-.28-.15-.52-.18-.72-.02-.2,0-.37.05-.51.06-.14.16-.26.32-.35.23-.14.46-.16.69-.07.23.09.45.31.66.66.14.24.23.46.26.67s0,.4-.08.58c-.09.18-.25.34-.49.47l-.26.16.68,1.14.27-.16c.45-.27.76-.59.94-.96.18-.37.24-.78.19-1.21-.05-.43-.21-.87-.47-1.31-.26-.44-.56-.78-.9-1.02-.34-.24-.69-.37-1.07-.39-.37-.02-.75.08-1.12.31Z"/>
  <polygon class="cls-1" points="345.47 296.65 346.16 297.82 351.27 294.77 352.34 296.57 353.4 295.94 350.57 291.19 349.51 291.82 350.58 293.61 345.47 296.65"/>
  <polygon class="cls-1" points="350.1 304.43 351.15 303.8 349.45 300.94 350.98 300.04 352.5 302.59 353.56 301.96 352.03 299.41 353.51 298.53 355.17 301.33 356.23 300.7 353.87 296.74 347.7 300.41 350.1 304.43"/>
  <polygon class="cls-1" points="351.28 306.41 356.59 303.25 356.68 303.41 352 307.63 353.14 309.55 359.08 307.44 359.18 307.6 353.87 310.76 354.54 311.89 360.7 308.22 359.42 306.06 353.41 308.19 353.32 308.04 358.06 303.77 356.77 301.61 350.61 305.28 351.28 306.41"/>
  <rect class="cls-1" x="358.89" y="313.55" width="1.17" height="3.03" transform="translate(-110.58 228.23) rotate(-30.77)"/>
  <path class="cls-1" d="M361.7,323.92c.22.37.48.66.77.86s.61.31.95.32.68-.08,1.02-.28l.09-.05c.29-.17.5-.37.62-.59.12-.22.18-.43.19-.64,0-.21-.01-.39-.05-.54l.16-.09c.12.1.27.2.45.29.18.09.4.13.64.13s.5-.09.79-.25l.09-.05c.32-.19.55-.44.69-.73.14-.29.19-.62.15-.97-.04-.35-.17-.72-.4-1.09l-1.89-3.17-1.02.61.48.81-4.12,2.45-.48-.81-1.02.61,1.91,3.21ZM366.07,319.65l.64,1.07c.15.25.21.48.18.71-.03.22-.16.4-.38.54l-.09.05c-.22.13-.43.15-.65.07-.22-.08-.4-.24-.54-.49l-.64-1.07,1.48-.88ZM363.54,321.16l.65,1.09c.15.26.21.5.18.73-.03.23-.16.41-.39.54l-.09.05c-.23.14-.45.16-.67.08-.22-.08-.4-.25-.55-.5l-.65-1.09,1.52-.9Z"/>
  <polygon class="cls-1" points="365.77 330.76 366.82 330.13 365.13 327.28 366.65 326.37 368.17 328.92 369.23 328.29 367.71 325.74 369.18 324.86 370.84 327.66 371.9 327.04 369.54 323.07 363.38 326.74 365.77 330.76"/>
  <polygon class="cls-1" points="368.31 335.03 370.81 333.54 370.91 333.7 369.62 337.23 370.53 338.76 372.08 334.24 376.65 335.01 375.76 333.52 372.12 332.98 372.03 332.82 374.48 331.36 373.78 330.2 367.62 333.87 368.31 335.03"/>
  <rect class="cls-1" x="370.74" y="337.45" width="7.18" height="1.35" transform="translate(-120.27 239) rotate(-30.76)"/>
  <polygon class="cls-1" points="372.97 342.86 378.34 339.66 378.44 339.82 373.79 344.24 375.11 346.45 381.27 342.78 380.59 341.64 375.22 344.84 375.13 344.68 379.77 340.26 378.45 338.05 372.29 341.71 372.97 342.86"/>
  <path class="cls-1" d="M383.37,346.3l-1.51-2.54-1.02.61.48.81-4.12,2.45-.48-.81-1.02.61,1.51,2.54c.49.83,1.08,1.33,1.75,1.51.68.18,1.43.03,2.26-.47l1.16-.69c.83-.49,1.32-1.08,1.49-1.76.16-.68,0-1.44-.49-2.26ZM382.57,348.19c-.11.36-.4.68-.85.95l-1.23.73c-.45.27-.86.36-1.23.29-.38-.07-.7-.34-.98-.81l-.35-.58,4.05-2.41.35.58c.28.47.36.89.25,1.25Z"/>
  <rect class="cls-1" x="374.68" y="354.08" width="1.17" height="3.03" transform="translate(14.73 726.12) rotate(-89.24)"/>
  <path class="cls-1" d="M365.4,353.08c-.33.15-.58.36-.77.64-.19.28-.28.62-.29,1.02v.1c0,.34.05.62.18.83.12.21.27.38.45.49.18.11.34.19.49.24v.18c-.15.05-.31.12-.48.24-.17.11-.32.27-.44.48s-.19.47-.2.8v.1c0,.38.08.7.26.97.18.27.43.48.75.63.32.15.7.23,1.14.24l3.69.05.02-1.19h-.94s.06-4.81.06-4.81h.94s.02-1.18.02-1.18l-3.73-.05c-.43,0-.81.06-1.14.21ZM367.89,358.83l-1.25-.02c-.29,0-.52-.08-.69-.22-.18-.14-.26-.34-.26-.6v-.1c0-.25.1-.45.28-.59.18-.14.41-.21.69-.21l1.25.02-.02,1.72ZM367.95,354.12l-.02,1.76-1.27-.02c-.3,0-.54-.08-.72-.23-.18-.15-.26-.35-.26-.62v-.1c0-.27.1-.47.28-.61.18-.14.42-.21.72-.21l1.27.02Z"/>
  <polygon class="cls-1" points="358.58 354 361.9 354.04 361.87 355.81 358.9 355.77 358.89 357 361.86 357.04 361.83 358.75 358.58 358.71 358.56 359.94 363.17 360 363.27 352.83 358.59 352.76 358.58 354"/>
  <path class="cls-1" d="M353.82,352.89c-.4-.23-.84-.34-1.33-.35-.37,0-.66.04-.87.12-.21.09-.37.19-.48.32-.11.13-.19.25-.24.37h-.18s0-.69,0-.69l-1.25-.02-.05,3.67,3.03.04v-1.15s-1.69-.02-1.69-.02v-.1c0-.4.12-.72.35-.98.23-.26.59-.38,1.08-.37.49,0,.87.16,1.14.47.27.31.4.71.39,1.21l-.02,1.76c0,.51-.15.9-.43,1.19-.28.29-.65.43-1.13.43-.32,0-.59-.07-.8-.19-.21-.12-.37-.29-.47-.49-.1-.21-.15-.44-.15-.69v-.08s-1.33-.02-1.33-.02v.04c-.01.8.22,1.44.7,1.91.48.47,1.15.72,2.04.73.89.01,1.59-.23,2.12-.72.53-.49.8-1.19.81-2.12l.02-1.72c0-.62-.1-1.14-.33-1.57-.23-.43-.54-.76-.94-.99Z"/>
  <polygon class="cls-1" points="343.5 353.79 346.82 353.84 346.8 355.61 343.83 355.57 343.81 356.8 346.78 356.84 346.76 358.55 343.5 358.51 343.49 359.74 348.1 359.8 348.19 352.63 343.52 352.56 343.5 353.79"/>
  <polygon class="cls-1" points="341.1 358.79 340.91 358.78 339.57 352.51 337 352.48 336.9 359.65 338.23 359.67 338.32 353.42 338.5 353.42 339.84 359.69 342.42 359.73 342.51 352.55 341.18 352.53 341.1 358.79"/>
  <polygon class="cls-1" points="333.99 352.44 332.63 352.42 332.55 358.36 330.46 358.34 330.45 359.57 335.98 359.64 336 358.41 333.91 358.38 333.99 352.44"/>
  <polygon class="cls-1" points="324.97 353.55 328.25 353.59 328.17 359.54 329.52 359.55 329.62 352.38 324.98 352.32 324.97 353.55"/>
  <polygon class="cls-1" points="319.35 353.47 322.67 353.52 322.65 355.29 319.68 355.25 319.66 356.48 322.63 356.52 322.61 358.23 319.35 358.19 319.33 359.42 323.94 359.48 324.04 352.31 319.37 352.24 319.35 353.47"/>
  <rect class="cls-1" x="313.89" y="353.28" width="1.17" height="3.03" transform="translate(-44.46 664.53) rotate(-89.24)"/>
  <path class="cls-1" d="M308.08,353.67l-2.56-.03-.37-1.58-1.39-.02,1.79,7.2,2.36.03,1.98-7.15-1.39-.02-.41,1.57ZM306.83,358.4h-.18s-.82-3.51-.82-3.51l1.93.03-.92,3.48Z"/>
  <polygon class="cls-1" points="298.25 353.19 301.53 353.24 301.46 359.18 302.81 359.2 302.9 352.03 298.27 351.96 298.25 353.19"/>
  <polygon class="cls-1" points="294.43 351.91 293.43 358.28 293.24 358.27 292.4 351.89 290.07 351.86 289.03 359.02 290.37 359.04 291.15 352.81 291.34 352.82 292.16 359.06 294.49 359.09 295.48 352.87 295.66 352.87 296.28 359.11 297.62 359.13 296.77 351.95 294.43 351.91"/>
  <path class="cls-1" d="M286.82,353.39l-2.56-.03-.37-1.58-1.39-.02,1.79,7.2,2.36.03,1.98-7.15-1.39-.02-.41,1.57ZM285.57,358.12h-.18s-.82-3.51-.82-3.51l1.93.03-.92,3.48Z"/>
  <polygon class="cls-1" points="279.78 351.72 278.43 351.7 278.4 354.17 275.89 358.84 277.4 358.86 278.96 355.81 279.14 355.81 280.62 358.91 282.12 358.93 279.75 354.19 279.78 351.72"/>
  <path class="cls-1" d="M274.2,351.8c-.42-.2-.91-.31-1.46-.32-.55,0-1.03.08-1.44.26-.41.18-.73.44-.95.77-.23.33-.34.71-.35,1.15,0,.44.1.8.3,1.08.21.28.5.51.88.69.38.18.82.32,1.33.44l.23.05c.29.07.52.14.7.23.18.08.32.19.41.31s.13.27.13.45c0,.27-.1.48-.3.63-.2.15-.5.22-.91.22-.27,0-.51-.05-.71-.13-.2-.08-.35-.21-.45-.37-.1-.17-.15-.39-.15-.66v-.31s-1.33-.02-1.33-.02v.31c-.01.52.1.95.32,1.3.22.35.54.61.93.79s.85.27,1.36.28.96-.07,1.34-.23c.38-.16.68-.4.89-.71.21-.31.32-.68.33-1.12,0-.44-.08-.79-.27-1.07-.18-.28-.45-.5-.8-.67-.35-.17-.77-.32-1.26-.43l-.23-.05c-.31-.07-.57-.15-.78-.23-.21-.08-.38-.18-.49-.31-.11-.12-.17-.29-.16-.48,0-.29.12-.52.35-.7.23-.18.58-.27,1.04-.26.46,0,.82.12,1.08.34.26.22.39.54.39.97v.29s1.33.02,1.33.02v-.29c.01-.52-.1-.97-.34-1.34-.23-.37-.56-.66-.98-.86Z"/>
  <rect class="cls-1" x="264.51" y="352.62" width="1.17" height="3.03" transform="translate(-92.52 614.52) rotate(-89.24)"/>
  <polygon class="cls-1" points="255.22 352.62 258.54 352.67 258.52 354.44 255.55 354.4 255.53 355.63 258.5 355.67 258.48 357.38 255.22 357.34 255.2 358.57 259.82 358.63 259.91 351.46 255.24 351.39 255.22 352.62"/>
  <rect class="cls-1" x="249.91" y="354.28" width="7.17" height="1.35" transform="translate(-104.8 603.72) rotate(-89.24)"/>
  <path class="cls-1" d="M246.57,352.01c-.51.48-.77,1.2-.78,2.17l-.02,1.35c-.01.96.23,1.69.72,2.19.5.5,1.23.75,2.19.76l2.95.04.02-1.19h-.94s.06-4.81.06-4.81h.94s.02-1.18.02-1.18l-2.95-.04c-.96-.01-1.7.22-2.21.7ZM249.36,357.26h-.68c-.55-.02-.94-.16-1.19-.45-.25-.29-.37-.69-.36-1.22l.02-1.43c0-.52.14-.92.4-1.2.26-.28.66-.42,1.21-.41h.68s-.06,4.72-.06,4.72Z"/>
  <path class="cls-1" d="M241.91,351.07c-.9-.01-1.62.23-2.16.71-.54.49-.82,1.19-.83,2.12l-.02,1.72c-.01.92.24,1.63.77,2.14.53.5,1.24.76,2.14.77.9.01,1.62-.23,2.16-.71.54-.49.82-1.19.83-2.12l.02-1.72c.01-.92-.24-1.63-.77-2.14-.53-.5-1.24-.76-2.14-.77ZM243.45,355.73c0,.49-.15.88-.44,1.17-.29.29-.68.43-1.18.43-.51,0-.9-.16-1.17-.46-.28-.3-.41-.69-.4-1.18l.02-1.8c0-.49.15-.88.44-1.17s.68-.43,1.18-.43c.5,0,.89.16,1.17.46.28.3.42.69.41,1.18l-.02,1.8Z"/>
  <polygon class="cls-1" points="233.12 352.33 236.4 352.37 236.32 358.32 237.67 358.34 237.77 351.16 233.13 351.1 233.12 352.33"/>
  <path class="cls-1" d="M229.41,350.91c-.9-.01-1.62.23-2.16.71-.54.49-.82,1.19-.83,2.12l-.02,1.72c-.01.92.24,1.63.77,2.14.53.5,1.24.76,2.14.77.9.01,1.62-.23,2.16-.71.54-.49.82-1.19.83-2.12l.02-1.72c.01-.92-.24-1.63-.77-2.14-.53-.5-1.24-.76-2.14-.77ZM230.95,355.56c0,.49-.15.88-.44,1.17-.29.29-.68.43-1.18.43-.5,0-.9-.16-1.17-.46-.28-.3-.41-.69-.4-1.18l.02-1.8c0-.49.15-.88.44-1.17.28-.29.68-.43,1.18-.43.5,0,.89.16,1.17.46.28.3.42.69.41,1.18l-.02,1.8Z"/>
  <polygon class="cls-1" points="223.87 357.23 223.68 357.23 222.34 350.96 219.77 350.92 219.67 358.1 221.01 358.12 221.09 351.86 221.27 351.87 222.61 358.14 225.19 358.17 225.28 351 223.95 350.98 223.87 357.23"/>
  <path class="cls-1" d="M214.78,351.01c-.42-.2-.91-.31-1.46-.32-.55,0-1.04.08-1.44.26-.41.18-.73.44-.95.77-.23.33-.34.71-.35,1.15s.09.8.3,1.08c.21.28.5.51.88.69.38.18.82.32,1.33.44l.24.05c.29.07.52.14.7.23.18.08.32.19.41.31.09.12.13.27.13.45,0,.27-.1.48-.3.63-.2.15-.5.22-.91.22-.27,0-.51-.05-.7-.13s-.35-.21-.45-.37c-.1-.17-.15-.39-.15-.66v-.31s-1.33-.02-1.33-.02v.31c-.01.52.1.95.32,1.3.22.35.53.61.93.79.4.18.85.27,1.36.28s.96-.07,1.34-.23c.38-.16.68-.4.89-.71.21-.31.32-.68.33-1.12,0-.44-.08-.79-.27-1.07-.18-.28-.45-.5-.8-.67-.35-.17-.77-.32-1.26-.43l-.24-.05c-.31-.07-.57-.15-.78-.23s-.38-.18-.49-.31c-.11-.12-.17-.29-.16-.48,0-.29.12-.52.35-.7.23-.18.58-.27,1.04-.26.46,0,.82.12,1.08.34s.39.54.39.97v.29s1.33.02,1.33.02v-.29c.01-.52-.1-.97-.34-1.34-.23-.37-.56-.66-.98-.86Z"/>
  <polygon class="cls-1" points="207.75 350.76 206.39 350.75 206.36 353.22 203.86 357.89 205.37 357.91 206.92 354.85 207.11 354.86 208.58 357.95 210.09 357.97 207.71 353.23 207.75 350.76"/>
  <path class="cls-1" d="M200.6,351.72c.46,0,.82.1,1.09.31.27.21.41.53.41.96v.29s1.34-.02,1.34-.02v-.29c-.01-.52-.14-.96-.38-1.33-.24-.37-.58-.65-1.01-.84-.43-.19-.92-.28-1.47-.28-.55,0-1.03.11-1.44.3s-.72.46-.93.79c-.22.33-.32.72-.32,1.16,0,.44.12.79.33,1.07.22.28.51.5.89.66.38.17.83.3,1.34.4l.24.05c.29.06.52.13.71.21.19.08.33.18.42.3.09.12.14.27.15.45,0,.27-.09.48-.28.63-.19.16-.49.24-.9.24-.27,0-.51-.03-.71-.11-.2-.08-.35-.2-.46-.36-.11-.17-.16-.39-.17-.66v-.31s-1.34.02-1.34.02v.31c.01.52.13.95.36,1.29s.55.6.95.77c.4.17.86.25,1.37.24.51,0,.96-.1,1.33-.27.38-.17.67-.41.87-.73s.3-.69.3-1.13c0-.44-.1-.79-.3-1.06-.19-.27-.46-.49-.82-.65-.35-.16-.78-.3-1.27-.4l-.24-.05c-.31-.06-.57-.13-.79-.21-.22-.08-.38-.17-.5-.3-.11-.12-.17-.28-.18-.48,0-.29.11-.52.33-.71.23-.19.57-.28,1.04-.29Z"/>
  <polygon class="cls-1" points="195.3 356.69 195.22 350.75 193.87 350.76 193.94 356.71 191.85 356.74 191.87 357.97 197.4 357.89 197.39 356.66 195.3 356.69"/>
  <polygon class="cls-1" points="186.16 350.87 186.18 352.1 189.5 352.05 189.52 353.83 186.55 353.87 186.57 355.09 189.54 355.06 189.56 356.77 186.3 356.81 186.32 358.04 190.93 357.98 190.83 350.8 186.16 350.87"/>
  <polygon class="cls-1" points="183.85 350.9 183.93 357.08 183.75 357.08 182.43 350.92 180.2 350.95 179.05 357.14 178.87 357.15 178.78 350.96 177.47 350.98 177.57 358.16 180.08 358.12 181.24 351.86 181.42 351.85 182.74 358.09 185.25 358.05 185.16 350.88 183.85 350.9"/>
  <rect class="cls-1" x="170.77" y="353.08" width="3.03" height="1.17" transform="translate(-4.64 2.3) rotate(-.75)"/>
  <path class="cls-1" d="M165.65,351.14l.04,2.62-1.6.02c-.44,0-.83.1-1.17.29-.34.19-.61.44-.81.78-.2.33-.29.72-.29,1.17v.14c0,.45.11.84.31,1.16.2.33.47.58.82.75s.75.26,1.2.26l2.95-.04-.1-7.17-1.35.02ZM164.26,357.1c-.32,0-.58-.08-.78-.26-.2-.18-.3-.42-.31-.72v-.1c0-.31.09-.55.29-.73.2-.18.45-.27.78-.28l1.47-.02.03,2.09-1.47.02Z"/>
  <polygon class="cls-1" points="159.45 351.22 159.49 354.2 156.83 354.24 156.79 351.26 155.44 351.27 155.53 358.45 156.88 358.43 156.85 355.47 159.51 355.43 159.55 358.4 160.9 358.38 160.81 351.2 159.45 351.22"/>
  <polygon class="cls-1" points="149.42 351.35 149.44 352.58 152.76 352.54 152.78 354.31 149.81 354.35 149.83 355.58 152.8 355.54 152.82 357.25 149.56 357.3 149.58 358.53 154.19 358.47 154.1 351.29 149.42 351.35"/>
  <path class="cls-1" d="M147.75,357.36l-.06-4.8h.94s-.02-1.2-.02-1.2l-2.95.04c-.96.01-1.69.27-2.19.76-.5.49-.74,1.22-.72,2.19l.02,1.35c.01.96.27,1.69.78,2.17.51.48,1.24.72,2.21.7l2.95-.04-.02-1.19h-.94ZM145.72,357.35c-.55,0-.95-.13-1.21-.41-.26-.28-.39-.68-.4-1.21l-.02-1.43c0-.52.11-.92.36-1.21.25-.29.65-.44,1.19-.45h.68s.06,4.71.06,4.71h-.68Z"/>
  <path class="cls-1" d="M140.22,351.48l.04,2.71-1.89.02c-.2,0-.34-.05-.43-.15-.09-.1-.13-.23-.13-.4l-.03-2.15-1.35.02.03,2.35c0,.29.08.52.23.69.15.17.37.26.64.27v.18c-.3.13-.55.33-.75.59-.2.27-.3.62-.29,1.05v.12c0,.39.1.73.29,1.01.19.28.45.5.79.66.34.15.73.23,1.18.22l3.12-.04-.09-7.17-1.35.02ZM138.68,357.44c-.33,0-.58-.08-.76-.25-.18-.17-.27-.4-.28-.69v-.1c0-.29.08-.52.26-.7.18-.18.43-.27.75-.27l1.62-.02.03,2.01-1.62.02Z"/>
  <path class="cls-1" d="M133.84,353.14l-2.56.03-.41-1.57-1.39.02,1.98,7.15,2.36-.03,1.79-7.2-1.39.02-.37,1.58ZM132.72,357.9h-.18s-.92-3.48-.92-3.48l1.93-.03-.82,3.51Z"/>
  <path class="cls-1" d="M125.36,355.38v-.14c.22-.07.43-.18.61-.33.18-.15.33-.33.43-.55.1-.22.15-.48.15-.77,0-.4-.1-.75-.28-1.04-.18-.29-.43-.51-.75-.66-.32-.15-.69-.22-1.11-.22l-2.56.03.04,3.1h-.94s.01,1.08.01,1.08h.94s.01.91.01.91l1.29-.02v-.92s.98-.01.98-.01c.19,0,.37.03.53.1.16.07.29.17.39.31.1.14.15.33.16.55,0,.32-.09.56-.29.73-.2.17-.45.25-.76.26h-.88s.01,1.08.01,1.08h1.12c.41-.02.77-.1,1.09-.25.32-.15.56-.37.75-.66s.27-.64.26-1.06c0-.42-.12-.75-.34-1s-.5-.42-.85-.52ZM124.96,354.52c-.2.17-.46.26-.76.27h-1.03s-.03-2.02-.03-2.02h1.04c.28-.02.53.06.75.23.22.16.33.42.33.76,0,.34-.1.59-.3.76Z"/>
  <path class="cls-1" d="M116.1,351.8l.04,2.62-1.6.02c-.44,0-.83.1-1.17.29-.34.19-.61.44-.81.78-.2.33-.29.72-.29,1.17v.14c0,.45.11.84.31,1.16.2.33.47.58.82.75s.75.26,1.2.26l2.95-.04-.1-7.17-1.35.02ZM114.71,357.76c-.32,0-.58-.08-.78-.26-.2-.18-.3-.42-.31-.72v-.1c0-.31.09-.55.29-.73.2-.18.45-.27.78-.28l1.46-.02.03,2.09-1.47.02Z"/>
  <polygon class="cls-1" points="109.9 351.88 109.94 354.86 107.28 354.9 107.24 351.91 105.89 351.93 105.98 359.11 107.33 359.09 107.29 356.13 109.96 356.09 110 359.05 111.35 359.03 111.26 351.86 109.9 351.88"/>
  <polygon class="cls-1" points="99.87 352.01 99.89 353.24 103.21 353.2 103.24 354.97 100.26 355.01 100.28 356.24 103.25 356.2 103.27 357.91 100.02 357.95 100.03 359.18 104.64 359.12 104.55 351.95 99.87 352.01"/>
  <path class="cls-1" d="M98.19,358.02l-.06-4.8h.94s-.02-1.2-.02-1.2l-2.95.04c-.96.01-1.69.27-2.19.76-.5.49-.74,1.22-.73,2.19l.02,1.35c.01.96.27,1.69.78,2.17.51.48,1.24.72,2.21.7l2.95-.04-.02-1.19h-.94ZM96.16,358.01c-.55,0-.95-.13-1.2-.41-.26-.28-.39-.68-.4-1.21l-.02-1.43c0-.52.11-.92.36-1.21.25-.29.65-.44,1.19-.45h.68s.06,4.71.06,4.71h-.68Z"/>
  <path class="cls-1" d="M91.4,352.72c-.54-.49-1.26-.73-2.16-.71-.9.01-1.62.27-2.14.77-.53.5-.78,1.21-.77,2.14l.02,1.72c.01.92.29,1.63.83,2.12.54.49,1.26.73,2.16.71.9-.01,1.62-.27,2.14-.77.53-.5.78-1.21.77-2.14l-.02-1.72c-.01-.92-.29-1.63-.83-2.12ZM90.49,357.8c-.28.3-.67.45-1.17.46-.51,0-.9-.14-1.18-.43-.28-.29-.43-.68-.44-1.17l-.02-1.8c0-.49.13-.89.4-1.18.28-.3.67-.45,1.17-.46.5,0,.89.13,1.18.43.29.29.43.68.44,1.17l.02,1.8c0,.49-.13.89-.41,1.18Z"/>
  <polygon class="cls-1" points="83.77 352.23 83.85 358.48 83.67 358.48 82.16 352.25 79.59 352.28 79.68 359.46 81.02 359.44 80.93 353.18 81.12 353.18 82.63 359.42 85.2 359.38 85.1 352.21 83.77 352.23"/>
  <path class="cls-1" d="M74.29,352.35l.03,2.62-1.6.02c-.44,0-.83.1-1.17.29s-.61.44-.81.78c-.2.33-.29.72-.29,1.17v.14c0,.45.11.84.31,1.16.2.33.47.58.82.75s.75.26,1.2.26l2.95-.04-.09-7.17-1.35.02ZM72.9,358.31c-.32,0-.58-.08-.78-.26s-.3-.42-.31-.72v-.1c0-.31.09-.55.29-.73s.45-.27.78-.28l1.47-.02.03,2.09-1.47.02Z"/>
  <path class="cls-1" d="M68.1,352.43l.04,2.71-1.89.02c-.2,0-.34-.05-.43-.15-.09-.1-.13-.23-.13-.4l-.03-2.15-1.35.02.03,2.35c0,.29.08.52.23.69.15.17.37.26.64.27v.18c-.3.13-.55.33-.75.59-.2.27-.3.62-.29,1.05v.12c0,.39.1.73.29,1.01.19.28.45.5.79.66.34.15.73.23,1.18.22l3.12-.04-.09-7.17-1.35.02ZM66.56,358.4c-.33,0-.58-.08-.76-.25-.18-.17-.27-.4-.28-.69v-.1c0-.29.08-.52.26-.7.18-.18.43-.27.75-.27l1.62-.02.03,2.01-1.62.02Z"/>
  <path class="cls-1" d="M62.32,353.11c-.54-.49-1.26-.73-2.16-.71-.9.01-1.62.27-2.14.77-.53.5-.78,1.21-.77,2.14l.02,1.72c.01.92.29,1.63.83,2.12.54.49,1.26.73,2.16.71.9-.01,1.62-.27,2.14-.77.53-.5.78-1.21.77-2.14l-.02-1.72c-.01-.92-.29-1.63-.83-2.12ZM61.41,358.19c-.28.3-.67.45-1.17.46-.51,0-.9-.14-1.18-.43-.28-.29-.43-.68-.44-1.17l-.02-1.8c0-.49.13-.89.4-1.18.28-.3.67-.45,1.17-.46.5,0,.89.13,1.18.43.29.29.43.68.44,1.17l.02,1.8c0,.49-.13.89-.41,1.18Z"/>
  <path class="cls-1" d="M54.67,352.61l.04,2.62-1.6.02c-.44,0-.83.1-1.17.29-.34.19-.61.44-.81.78-.2.33-.29.72-.29,1.17v.14c0,.45.11.84.31,1.16.2.33.47.58.82.75.35.18.75.26,1.2.26l2.95-.04-.09-7.17-1.35.02ZM53.28,358.57c-.32,0-.58-.08-.78-.26s-.3-.42-.31-.72v-.1c0-.31.09-.55.29-.73s.45-.27.78-.28l1.47-.02.03,2.09-1.46.02Z"/>
  <polygon class="cls-1" points="45.16 352.74 45.18 353.97 48.5 353.92 48.52 355.7 45.55 355.74 45.57 356.96 48.54 356.93 48.56 358.64 45.3 358.68 45.32 359.91 49.93 359.85 49.84 352.67 45.16 352.74"/>
  <path class="cls-1" d="M42.79,352.77l.04,2.71-1.89.02c-.2,0-.34-.05-.43-.15-.09-.1-.13-.23-.13-.4l-.03-2.15-1.35.02.03,2.35c0,.29.08.52.23.69.15.17.37.26.64.27v.18c-.3.13-.55.33-.75.59-.2.27-.3.62-.29,1.05v.12c0,.39.1.73.29,1.01.19.28.45.5.79.66.34.15.73.23,1.18.22l3.12-.04-.1-7.17-1.35.02ZM41.25,358.73c-.33,0-.58-.08-.76-.25s-.27-.4-.28-.69v-.1c0-.29.08-.52.26-.7.18-.18.43-.27.75-.27l1.62-.02.03,2.01-1.62.02Z"/>
  <polygon class="cls-1" points="36.1 358.8 36.02 352.86 34.67 352.88 34.75 358.82 32.66 358.85 32.67 360.08 38.21 360.01 38.19 358.78 36.1 358.8"/>
  <polygon class="cls-1" points="29.79 352.94 28.44 352.96 28.47 355.43 26.09 360.17 27.6 360.15 29.07 357.05 29.26 357.05 30.82 360.1 32.32 360.08 29.82 355.41 29.79 352.94"/>
  <polygon class="cls-1" points="21.88 351.9 16.77 348.86 16.08 350.03 22.24 353.7 24.61 349.71 23.56 349.09 21.88 351.9"/>
  <rect class="cls-1" x="21.68" y="342.9" width="1.35" height="7.18" transform="translate(-286.81 188.47) rotate(-59.24)"/>
  <polygon class="cls-1" points="27.15 345.46 21.84 342.3 21.93 342.14 27.87 344.24 29.01 342.32 24.33 338.1 24.43 337.94 29.74 341.11 30.41 339.98 24.24 336.31 22.96 338.47 27.7 342.73 27.6 342.89 21.6 340.76 20.31 342.91 26.48 346.58 27.15 345.46"/>
  <rect class="cls-1" x="27.68" y="332.82" width="1.35" height="7.18" transform="translate(-275.22 188.71) rotate(-59.24)"/>
  <polygon class="cls-1" points="28.22 332.03 33.33 335.07 34.02 333.91 28.91 330.86 29.98 329.07 28.93 328.44 26.1 333.2 27.15 333.82 28.22 332.03"/>
  <polygon class="cls-1" points="37.96 327.28 36.91 326.66 35.21 329.51 33.68 328.6 35.2 326.05 34.15 325.42 32.63 327.97 31.16 327.1 32.82 324.3 31.77 323.67 29.41 327.63 35.57 331.3 37.96 327.28"/>
  <path class="cls-1" d="M33.71,322.73l4.12,2.45-.48.81,1.02.61,1.51-2.54c.49-.83.66-1.58.49-2.26-.16-.68-.66-1.27-1.49-1.76l-1.16-.69c-.83-.49-1.58-.65-2.26-.47-.68.18-1.26.69-1.75,1.51l-1.51,2.54,1.02.61.48-.81ZM34.78,321.01c.28-.47.61-.74.98-.81.37-.07.79.03,1.24.3l1.23.73c.45.27.73.58.85.94.12.36.04.78-.24,1.25l-.35.58-4.05-2.41.35-.58Z"/>
  <rect class="cls-1" x="40.19" y="315.31" width="3.03" height="1.17" transform="translate(-251.13 190.3) rotate(-59.27)"/>
  <polygon class="cls-1" points="49.01 308.73 47.95 308.1 46.25 310.95 44.73 310.04 46.25 307.49 45.19 306.86 43.67 309.42 42.2 308.54 43.87 305.74 42.81 305.11 40.45 309.07 46.62 312.74 49.01 308.73"/>
  <rect class="cls-1" x="46.12" y="301.85" width="1.35" height="7.18" transform="translate(-239.6 189.42) rotate(-59.24)"/>
  <path class="cls-1" d="M46.14,301.84l4.12,2.45-.48.81,1.02.61,1.51-2.54c.49-.83.66-1.58.49-2.26-.16-.68-.66-1.27-1.49-1.76l-1.16-.69c-.83-.49-1.58-.65-2.26-.47s-1.26.69-1.75,1.51l-1.51,2.54,1.02.61.48-.81ZM47.22,300.12c.28-.47.61-.74.98-.81.37-.07.79.03,1.24.3l1.23.73c.45.27.73.58.85.94.12.36.04.78-.24,1.25l-.35.58-4.05-2.41.35-.58Z"/>
  <path class="cls-1" d="M50.5,297.52l1.48.88c.79.47,1.54.61,2.24.4.7-.2,1.28-.69,1.74-1.47.46-.78.62-1.52.46-2.23-.15-.71-.63-1.3-1.42-1.78l-1.48-.88c-.79-.47-1.54-.61-2.24-.4-.7.21-1.28.69-1.74,1.47-.46.78-.61,1.52-.46,2.23.15.71.63,1.3,1.42,1.78ZM50.58,294.14c.26-.43.59-.7.98-.79.4-.09.81-.01,1.23.24l1.55.92c.42.25.69.57.8.96.11.39.03.8-.22,1.24-.26.43-.58.69-.98.78-.4.09-.81.01-1.23-.24l-1.55-.92c-.42-.25-.69-.57-.8-.97-.11-.39-.03-.81.22-1.23Z"/>
  <polygon class="cls-1" points="60.32 289.73 59.26 289.1 57.58 291.92 52.47 288.88 51.78 290.04 57.95 293.71 60.32 289.73"/>
  <path class="cls-1" d="M56.88,286.8l1.48.88c.79.47,1.54.61,2.24.4.7-.2,1.28-.69,1.74-1.47.46-.78.62-1.52.46-2.23-.15-.71-.63-1.3-1.42-1.78l-1.48-.88c-.79-.47-1.54-.61-2.24-.4-.7.21-1.28.69-1.74,1.47-.46.78-.61,1.52-.46,2.23.15.71.63,1.3,1.42,1.78ZM56.97,283.41c.26-.43.59-.7.98-.79s.81-.01,1.23.24l1.55.92c.42.25.69.57.8.96.11.39.03.8-.22,1.24-.26.43-.58.69-.98.78-.4.09-.81.01-1.23-.24l-1.55-.92c-.42-.25-.69-.57-.8-.97-.11-.39-.03-.81.22-1.23Z"/>
  <polygon class="cls-1" points="65.01 281.84 59.64 278.64 59.73 278.48 65.84 280.46 67.15 278.24 60.99 274.57 60.3 275.72 65.68 278.92 65.58 279.08 59.48 277.1 58.16 279.31 64.33 282.98 65.01 281.84"/>
  <path class="cls-1" d="M64.61,272.29c.38.22.73.33,1.06.3.33-.02.66-.14.98-.36.32-.22.66-.51,1-.88l.16-.18c.22-.23.41-.42.59-.56s.35-.23.51-.27c.16-.03.33,0,.5.1.25.15.39.37.43.66.04.29-.06.64-.29,1.04-.23.39-.51.65-.83.77s-.67.07-1.04-.15l-.25-.15-.68,1.14.25.15c.45.27.89.39,1.33.37.44-.02.85-.16,1.24-.42.39-.26.72-.63,1.01-1.11.28-.48.45-.94.49-1.38.05-.45-.02-.85-.19-1.21-.17-.36-.44-.65-.82-.88-.38-.22-.74-.32-1.09-.28-.35.04-.69.18-1.03.42-.34.24-.69.55-1.05.93l-.16.18c-.2.22-.38.38-.55.5-.16.12-.32.18-.48.2-.15.02-.31-.02-.46-.11-.23-.14-.36-.33-.39-.57-.03-.25.06-.54.27-.9.14-.23.29-.42.46-.55s.35-.2.55-.2c.2,0,.41.06.65.2l.26.16.68-1.14-.26-.16c-.45-.27-.88-.39-1.29-.37-.41.02-.8.16-1.15.41s-.66.6-.92,1.04c-.26.44-.42.87-.47,1.28s0,.79.17,1.12c.16.34.43.62.8.84Z"/>
  <polygon class="cls-1" points="73.31 267.9 74 266.73 71.88 265.47 69.08 260.97 68.31 262.26 70.18 265.14 70.09 265.3 66.67 265.03 65.9 266.32 71.19 266.63 73.31 267.9"/>
  <path class="cls-1" d="M71.06,261.46c.38.22.73.33,1.06.3.33-.02.66-.14.98-.36.32-.22.66-.51,1-.88l.16-.18c.22-.23.41-.42.59-.56.18-.14.35-.23.51-.27.16-.03.33,0,.5.1.25.15.39.37.43.66.04.29-.06.64-.29,1.04-.23.39-.51.65-.83.77-.32.12-.67.07-1.04-.15l-.25-.15-.68,1.14.25.15c.45.27.89.39,1.33.37.44-.02.85-.16,1.24-.42s.72-.63,1-1.11c.28-.48.45-.94.49-1.38.05-.45-.02-.85-.19-1.21s-.44-.65-.82-.88c-.37-.22-.74-.32-1.09-.28-.35.04-.69.18-1.04.42s-.69.55-1.05.93l-.16.18c-.2.22-.38.38-.55.5s-.32.18-.48.2c-.15.02-.31-.02-.46-.11-.23-.14-.36-.33-.39-.57-.03-.25.06-.54.27-.9.14-.23.29-.42.46-.55.17-.13.35-.2.55-.2.2,0,.42.06.65.2l.26.16.68-1.14-.26-.16c-.45-.27-.88-.39-1.29-.37-.41.02-.8.16-1.15.41s-.66.6-.92,1.04c-.26.44-.42.87-.47,1.28-.05.41,0,.79.17,1.12.16.34.43.62.81.84Z"/>
  <polygon class="cls-1" points="74.55 254.19 79.66 257.23 80.35 256.07 75.24 253.03 76.31 251.23 75.25 250.6 72.42 255.36 73.48 255.99 74.55 254.19"/>
  <polygon class="cls-1" points="84.28 249.46 83.22 248.84 81.53 251.69 80 250.78 81.52 248.23 80.46 247.6 78.94 250.15 77.47 249.28 79.14 246.48 78.08 245.85 75.72 249.81 81.89 253.48 84.28 249.46"/>
  <polygon class="cls-1" points="85.46 247.47 80.15 244.31 80.25 244.16 86.19 246.26 87.33 244.34 82.65 240.12 82.74 239.96 88.05 243.12 88.73 242 82.56 238.33 81.28 240.48 86.01 244.75 85.92 244.91 79.91 242.77 78.63 244.93 84.79 248.6 85.46 247.47"/>
  <rect class="cls-1" x="87.64" y="235.58" width="3.03" height="1.17" transform="translate(-159.39 192) rotate(-59.24)"/>
  <path class="cls-1" d="M89.31,229.3l4.12,2.45-.48.81,1.02.61,1.91-3.21c.22-.37.35-.73.38-1.09.04-.36-.02-.69-.17-.99-.15-.3-.39-.56-.73-.76l-.09-.05c-.29-.17-.56-.26-.81-.26-.25,0-.46.05-.65.14-.19.09-.34.2-.45.3l-.16-.09c.04-.15.05-.33.04-.53-.01-.2-.08-.41-.19-.62-.12-.21-.31-.4-.6-.57l-.09-.05c-.32-.19-.65-.28-.97-.26-.33.02-.63.13-.93.33-.29.2-.55.49-.77.87l-1.89,3.17,1.02.61.48-.81ZM93.23,228.58c.15-.26.34-.43.55-.51.21-.08.44-.05.66.09l.09.05c.23.14.36.32.39.55.03.23-.03.47-.18.72l-.65,1.09-1.52-.9.65-1.09ZM90.68,227.09c.15-.25.33-.41.54-.49.21-.08.43-.06.65.08l.09.05c.22.13.34.31.37.54.03.23-.03.46-.17.7l-.64,1.07-1.48-.88.64-1.07Z"/>
  <polygon class="cls-1" points="99.95 223.13 98.89 222.5 97.2 225.36 95.67 224.45 97.19 221.9 96.14 221.27 94.62 223.82 93.14 222.95 94.81 220.15 93.75 219.52 91.4 223.48 97.56 227.15 99.95 223.13"/>
  <polygon class="cls-1" points="102.49 218.87 99.99 217.38 100.08 217.22 103.8 216.67 104.71 215.14 100 215.93 98.49 211.55 97.61 213.04 98.87 216.5 98.77 216.66 96.32 215.2 95.63 216.36 101.8 220.03 102.49 218.87"/>
  <rect class="cls-1" x="101.67" y="208.5" width="1.35" height="7.18" transform="translate(-132.25 191.54) rotate(-59.23)"/>
  <polygon class="cls-1" points="107.14 211.05 101.77 207.85 101.86 207.69 107.97 209.67 109.28 207.46 103.12 203.79 102.43 204.93 107.81 208.13 107.71 208.29 101.61 206.32 100.3 208.53 106.46 212.2 107.14 211.05"/>
  <path class="cls-1" d="M105.21,202.59l4.12,2.45-.48.81,1.02.61,1.51-2.54c.49-.83.66-1.58.49-2.26-.16-.68-.66-1.27-1.49-1.76l-1.16-.69c-.83-.49-1.58-.65-2.26-.47-.68.18-1.26.69-1.75,1.51l-1.51,2.54,1.02.61.48-.81ZM106.29,200.87c.28-.47.61-.74.98-.81.37-.07.79.03,1.24.3l1.23.73c.45.27.73.58.85.94.12.36.04.78-.24,1.25l-.35.58-4.05-2.41.35-.58Z"/>
  <rect class="cls-1" x="111.64" y="195.08" width="3.03" height="1.17" transform="translate(-112.86 198.77) rotate(-60.75)"/>
  <path class="cls-1" d="M113.13,188.8l4.19,2.34-.46.82,1.04.58,1.82-3.26c.21-.38.33-.74.36-1.1s-.04-.69-.2-.98-.41-.55-.75-.74l-.09-.05c-.3-.17-.57-.25-.82-.24s-.46.06-.65.16-.33.21-.44.32l-.16-.09c.03-.15.04-.33.02-.53s-.09-.41-.21-.62c-.12-.21-.33-.39-.61-.55l-.09-.05c-.33-.18-.65-.26-.98-.24-.32.03-.63.14-.92.36s-.54.51-.75.89l-1.8,3.22,1.04.58.46-.82ZM117.02,187.98c.15-.26.33-.44.54-.52.21-.08.43-.06.67.07l.09.05c.23.13.37.31.4.54.04.23-.02.47-.16.73l-.62,1.11-1.54-.86.62-1.11ZM114.44,186.55c.14-.25.31-.42.52-.51s.43-.07.65.06l.09.05c.22.12.35.3.39.53.04.23-.01.46-.15.71l-.61,1.09-1.5-.84.61-1.09Z"/>
  <polygon class="cls-1" points="123.59 182.37 122.52 181.77 120.9 184.67 119.35 183.8 120.8 181.21 119.73 180.61 118.28 183.2 116.78 182.36 118.38 179.52 117.3 178.92 115.05 182.94 121.31 186.45 123.59 182.37"/>
  <path class="cls-1" d="M121.4,177.19l1.5.84c.54.3,1.05.45,1.54.45.49,0,.93-.12,1.32-.36.39-.24.7-.57.94-1,.18-.32.28-.6.31-.83.03-.23,0-.42-.05-.58s-.13-.28-.21-.38l.09-.16.6.34.61-1.09-3.2-1.79-1.48,2.65,1,.56.83-1.48.09.05c.35.19.58.45.69.78.12.32.05.7-.19,1.13-.24.43-.56.69-.96.78s-.82.01-1.25-.23l-1.54-.86c-.44-.25-.72-.56-.85-.94-.12-.38-.07-.78.17-1.2.16-.28.34-.48.55-.61.21-.13.43-.19.66-.18s.46.07.68.2l.07.04.65-1.16-.04-.02c-.7-.39-1.37-.49-2.01-.3s-1.18.67-1.61,1.44c-.43.78-.56,1.51-.38,2.21.18.69.67,1.27,1.47,1.72Z"/>
  <polygon class="cls-1" points="130.96 169.21 129.89 168.61 128.27 171.5 126.72 170.64 128.17 168.04 127.1 167.44 125.65 170.04 124.15 169.2 125.74 166.36 124.67 165.76 122.42 169.78 128.68 173.29 130.96 169.21"/>
  <polygon class="cls-1" points="132.1 167.18 126.64 164.13 126.73 163.97 132.88 165.78 134.14 163.53 127.88 160.03 127.23 161.19 132.68 164.25 132.59 164.41 126.44 162.59 125.18 164.84 131.44 168.34 132.1 167.18"/>
  <polygon class="cls-1" points="130.43 157.99 135.62 160.89 136.28 159.71 131.09 156.81 132.11 154.99 131.04 154.38 128.33 159.21 129.41 159.82 130.43 157.99"/>
  <polygon class="cls-1" points="140.02 153.02 138.95 152.42 137.35 155.28 132.16 152.38 131.5 153.56 137.76 157.07 140.02 153.02"/>
  <polygon class="cls-1" points="142.75 148.16 141.67 147.56 140.05 150.45 138.5 149.59 139.96 146.99 138.88 146.39 137.43 148.99 135.94 148.15 137.53 145.31 136.46 144.71 134.2 148.73 140.46 152.23 142.75 148.16"/>
  <rect class="cls-1" x="141.34" y="142.03" width="3.03" height="1.17" transform="translate(-51.36 197.64) rotate(-60.77)"/>
  <path class="cls-1" d="M148.07,138.64l-1.19-1.11,1.25-2.24,1.57.43.68-1.22-7.18-1.86-1.15,2.06,5.34,5.15.68-1.22ZM143.33,134.17l.09-.16,3.48.95-.94,1.68-2.62-2.47Z"/>
  <polygon class="cls-1" points="153.07 129.71 152 129.11 150.4 131.97 145.21 129.06 144.55 130.25 150.81 133.75 153.07 129.71"/>
  <polygon class="cls-1" points="154.95 126.36 149.83 122.44 149.92 122.28 155.94 124.59 157.08 122.55 151.28 118.22 150.62 119.4 155.72 123.05 155.63 123.21 149.75 120.95 148.61 122.99 153.61 126.82 153.52 126.98 147.74 124.55 147.08 125.72 153.8 128.4 154.95 126.36"/>
  <path class="cls-1" d="M158.46,120.09l-1.19-1.11,1.25-2.24,1.57.43.68-1.22-7.18-1.86-1.15,2.06,5.34,5.15.68-1.22ZM153.71,115.62l.09-.16,3.48.95-.94,1.68-2.62-2.47Z"/>
  <polygon class="cls-1" points="162.1 113.59 162.76 112.41 160.6 111.2 157.69 106.77 156.95 108.09 158.9 110.91 158.81 111.07 155.38 110.9 154.65 112.21 159.94 112.38 162.1 113.59"/>
  <path class="cls-1" d="M159.68,107.21c.38.21.74.31,1.07.27s.65-.16.97-.38c.32-.23.64-.53.98-.9l.16-.18c.21-.23.4-.43.57-.58.17-.15.34-.24.5-.28s.33,0,.5.09c.25.14.4.36.45.65.05.29-.04.64-.27,1.04-.22.4-.49.66-.81.79-.32.13-.67.09-1.04-.12l-.25-.14-.65,1.16.25.14c.45.25.9.37,1.34.34.44-.03.85-.18,1.23-.45.38-.27.7-.65.98-1.13.27-.48.42-.95.46-1.39.04-.45-.04-.85-.22-1.2-.18-.36-.46-.64-.84-.85-.38-.21-.75-.3-1.09-.25-.35.05-.69.2-1.02.44s-.67.57-1.02.96l-.16.18c-.19.22-.37.39-.53.51-.16.12-.32.19-.47.21-.15.02-.31-.01-.46-.1-.23-.13-.37-.32-.41-.56-.04-.24.04-.55.24-.9.13-.24.28-.42.45-.56.17-.13.35-.21.54-.22.2-.01.42.05.66.18l.27.15.65-1.16-.27-.15c-.45-.25-.89-.36-1.3-.33-.41.03-.79.18-1.14.44s-.65.62-.9,1.07c-.25.45-.4.88-.43,1.29-.04.41.03.79.2,1.12.17.33.44.61.83.82Z"/>
  <rect class="cls-1" x="165.45" y="98.95" width="3.03" height="1.17" transform="translate(-1.46 196.57) rotate(-60.75)"/>
  <polygon class="cls-1" points="174.08 92.18 173.01 91.58 171.39 94.48 169.84 93.61 171.29 91.02 170.22 90.42 168.76 93.01 167.27 92.17 168.86 89.33 167.79 88.73 165.54 92.75 171.8 96.26 174.08 92.18"/>
  <rect class="cls-1" x="171.1" y="85.37" width="1.35" height="7.17" transform="translate(10.24 195.38) rotate(-60.76)"/>
  <path class="cls-1" d="M171.03,85.37l4.19,2.34-.46.82,1.04.58,1.44-2.58c.47-.84.62-1.6.43-2.28-.18-.68-.69-1.25-1.53-1.72l-1.18-.66c-.84-.47-1.6-.61-2.27-.41-.67.2-1.24.72-1.71,1.56l-1.44,2.58,1.04.58.46-.82ZM172.06,83.62c.27-.48.59-.76.96-.84.37-.08.79,0,1.24.26l1.25.7c.45.25.74.56.87.92.13.36.06.78-.21,1.26l-.33.59-4.12-2.3.33-.59Z"/>
  <path class="cls-1" d="M175.27,80.95l1.5.84c.81.45,1.55.56,2.25.34.69-.22,1.26-.73,1.7-1.52.44-.79.57-1.53.4-2.24-.17-.71-.66-1.29-1.46-1.74l-1.5-.84c-.81-.45-1.55-.56-2.25-.34-.69.22-1.26.73-1.7,1.52-.44.79-.57,1.53-.4,2.24.17.71.66,1.29,1.46,1.74ZM175.26,77.56c.25-.44.57-.71.96-.81.39-.1.81-.03,1.23.21l1.57.88c.43.24.7.56.82.94.12.39.05.8-.19,1.24-.24.44-.56.7-.96.81-.4.1-.81.04-1.24-.2l-1.57-.88c-.43-.24-.7-.56-.82-.95-.12-.39-.05-.8.19-1.24Z"/>
  <polygon class="cls-1" points="184.88 72.88 183.81 72.28 182.21 75.15 177.02 72.24 176.36 73.42 182.62 76.93 184.88 72.88"/>
  <path class="cls-1" d="M181.38,70.04l1.5.84c.8.45,1.55.56,2.25.34.69-.22,1.26-.73,1.7-1.52.44-.79.57-1.53.4-2.24-.17-.71-.66-1.29-1.47-1.74l-1.5-.84c-.8-.45-1.55-.56-2.25-.34-.69.22-1.26.73-1.7,1.52-.44.79-.57,1.53-.4,2.24.17.71.66,1.29,1.47,1.74ZM181.37,66.65c.25-.44.57-.71.96-.81s.8-.03,1.23.21l1.57.88c.43.24.7.56.82.94.12.39.06.8-.19,1.24-.24.44-.56.7-.96.81-.39.1-.81.04-1.24-.2l-1.57-.88c-.43-.24-.7-.56-.82-.95-.12-.39-.06-.8.19-1.24Z"/>
  <polygon class="cls-1" points="189.37 64.86 183.92 61.81 184.01 61.65 190.16 63.46 191.42 61.21 185.16 57.71 184.51 58.87 189.96 61.92 189.87 62.08 183.72 60.27 182.46 62.52 188.72 66.02 189.37 64.86"/>
  <path class="cls-1" d="M188.71,55.35c.38.21.74.31,1.07.27s.66-.16.97-.38c.32-.23.65-.53.98-.9l.16-.18c.21-.23.4-.43.57-.58.17-.15.34-.24.5-.28s.33,0,.5.09c.25.14.4.36.45.65s-.04.64-.27,1.04c-.22.4-.49.66-.81.79-.32.13-.66.09-1.04-.12l-.25-.14-.65,1.16.25.14c.45.25.9.37,1.34.34.44-.03.85-.18,1.23-.45s.7-.65.98-1.13c.27-.48.42-.95.46-1.39s-.04-.85-.22-1.2c-.18-.36-.46-.64-.84-.85s-.75-.3-1.09-.25c-.35.05-.69.2-1.02.44-.33.25-.67.57-1.02.96l-.16.18c-.19.22-.37.39-.53.51-.16.12-.32.19-.47.21-.15.02-.31-.01-.46-.1-.23-.13-.37-.32-.41-.56-.04-.24.04-.55.24-.9.13-.24.28-.42.45-.56.17-.13.35-.21.54-.22s.42.05.65.18l.27.15.65-1.16-.27-.15c-.45-.25-.89-.36-1.3-.33-.41.03-.79.18-1.14.44s-.65.62-.9,1.07c-.25.45-.4.88-.43,1.29-.04.41.03.79.2,1.12.17.33.44.61.83.82Z"/>
  <polygon class="cls-1" points="197.29 50.73 197.95 49.55 195.79 48.34 192.88 43.91 192.14 45.23 194.08 48.05 193.99 48.21 190.57 48.04 189.83 49.35 195.13 49.52 197.29 50.73"/>
  <path class="cls-1" d="M194.74,44.58c.38.21.74.31,1.07.28.33-.03.65-.16.97-.38.32-.23.65-.53.98-.9l.16-.18c.21-.24.4-.43.57-.58.17-.15.34-.24.5-.28.16-.04.33,0,.5.09.25.14.4.36.45.65.05.29-.04.64-.27,1.04-.22.4-.49.66-.81.79-.32.13-.66.09-1.04-.12l-.25-.14-.65,1.16.25.14c.45.25.9.37,1.34.34.44-.03.85-.18,1.23-.45.38-.27.71-.65.98-1.13.27-.48.42-.95.46-1.39.03-.45-.04-.85-.22-1.2-.18-.36-.46-.64-.84-.85-.38-.21-.75-.3-1.09-.25s-.69.2-1.02.44c-.33.25-.68.57-1.02.96l-.16.18c-.19.22-.37.39-.53.51-.16.12-.32.19-.47.21-.15.02-.31-.01-.46-.1-.23-.13-.37-.32-.41-.56-.04-.24.04-.55.24-.9.13-.24.28-.42.45-.56.16-.13.35-.21.54-.22.2-.01.42.05.65.18l.27.15.65-1.16-.27-.15c-.45-.25-.89-.36-1.3-.33-.41.03-.79.18-1.14.44s-.65.62-.9,1.07c-.25.45-.39.88-.43,1.29-.04.41.03.79.2,1.12s.44.61.83.82Z"/>
  <polygon class="cls-1" points="203.7 49.51 208.88 46.61 209.91 48.43 210.98 47.83 208.28 43 207.2 43.6 208.22 45.43 203.04 48.33 203.7 49.51"/>
  <polygon class="cls-1" points="207.46 56.23 208.53 55.62 206.91 52.73 208.45 51.86 209.91 54.45 210.98 53.85 209.53 51.26 211.02 50.42 212.61 53.27 213.69 52.67 211.43 48.64 205.17 52.15 207.46 56.23"/>
  <polygon class="cls-1" points="208.58 58.24 213.98 55.22 214.07 55.38 209.28 59.48 210.37 61.43 216.36 59.48 216.45 59.64 211.06 62.66 211.7 63.81 217.96 60.3 216.73 58.11 210.67 60.08 210.58 59.92 215.43 55.78 214.2 53.59 207.94 57.1 208.58 58.24"/>
  <rect class="cls-1" x="215.95" y="65.58" width="1.17" height="3.03" transform="translate(-5.19 114.29) rotate(-29.23)"/>
  <path class="cls-1" d="M217.47,74.12l2.29-1.28.78,1.4c.21.38.48.68.81.89.33.21.68.33,1.07.34.39.01.78-.09,1.16-.3l.12-.07c.39-.22.69-.5.88-.83.19-.33.28-.69.27-1.08-.01-.39-.13-.78-.35-1.17l-1.44-2.58-6.26,3.51.66,1.18ZM222.66,71.21l.72,1.28c.16.28.21.55.15.81-.06.26-.22.46-.49.62l-.09.05c-.27.15-.53.18-.78.1-.25-.09-.46-.27-.61-.55l-.72-1.28,1.82-1.02Z"/>
  <polygon class="cls-1" points="220.49 79.52 223.1 78.06 224.4 80.39 221.8 81.84 222.46 83.02 228.72 79.52 228.06 78.34 225.47 79.79 224.17 77.46 226.76 76.01 226.09 74.83 219.83 78.34 220.49 79.52"/>
  <polygon class="cls-1" points="225.4 88.28 226.47 87.68 224.85 84.78 226.4 83.92 227.85 86.51 228.92 85.91 227.47 83.32 228.97 82.48 230.56 85.32 231.63 84.72 229.38 80.7 223.12 84.2 225.4 88.28"/>
  <path class="cls-1" d="M231.48,86.88l-4.19,2.34-.46-.82-1.04.58,1.44,2.58c.47.84,1.04,1.36,1.71,1.56.67.2,1.43.06,2.27-.41l1.18-.66c.84-.47,1.35-1.04,1.53-1.72.18-.68.04-1.44-.43-2.28l-1.44-2.58-1.04.58.46.82ZM232.1,88.08l.33.59c.27.48.34.9.21,1.25-.12.36-.41.67-.87.92l-1.25.7c-.45.25-.87.34-1.24.26s-.69-.36-.96-.84l-.33-.59,4.11-2.3Z"/>
  <path class="cls-1" d="M229.89,96.3l2.36-1.32.92,1.65c.1.17.12.32.07.45s-.14.23-.29.31l-1.88,1.05.66,1.18,2.05-1.15c.25-.14.41-.32.49-.53.08-.22.06-.45-.06-.69l.16-.09c.25.2.55.33.88.38.33.05.69-.03,1.06-.24l.11-.06c.34-.19.59-.44.75-.74.16-.3.23-.64.2-1.01-.03-.37-.15-.75-.37-1.14l-1.52-2.72-6.26,3.51.66,1.18ZM235.08,93.39l.79,1.41c.16.29.21.55.14.79-.07.24-.22.43-.47.57l-.09.05c-.25.14-.5.17-.74.1-.24-.07-.44-.25-.6-.53l-.79-1.41,1.75-.98Z"/>
  <path class="cls-1" d="M232.83,101.56l1.57-.43,1.25,2.24-1.19,1.11.68,1.22,5.34-5.15-1.15-2.06-7.18,1.86.68,1.22ZM239.12,99.85l.09.16-2.62,2.47-.94-1.68,3.48-.95Z"/>
  <path class="cls-1" d="M240.42,107.52l-.13.07c-.17-.16-.36-.29-.58-.38s-.44-.13-.69-.11-.49.09-.75.24c-.35.2-.61.44-.78.74-.17.3-.24.62-.22.97.02.35.14.71.34,1.08l1.25,2.24,2.7-1.51.46.82.93-.52-.46-.82.8-.45-.63-1.13-.81.45-.49-.87c-.09-.17-.15-.34-.17-.51-.02-.17,0-.34.09-.5s.21-.29.41-.4c.28-.16.54-.19.78-.09.24.1.44.28.59.55l.43.77.93-.52-.55-.97c-.2-.36-.44-.64-.73-.85-.28-.21-.6-.32-.94-.34-.34-.02-.69.07-1.06.27-.36.2-.6.46-.72.78-.11.31-.13.65-.05.99ZM240.95,109.72l-1.77.99-.5-.9c-.14-.24-.18-.5-.14-.77s.21-.49.51-.65c.29-.16.56-.2.81-.1.25.1.45.27.59.54l.5.9Z"/>
  <path class="cls-1" d="M241.67,117.34l2.29-1.28.78,1.4c.21.38.48.68.81.89.33.21.68.33,1.07.34s.78-.09,1.16-.3l.12-.07c.39-.22.69-.5.88-.83.19-.33.28-.69.27-1.08s-.13-.78-.35-1.17l-1.44-2.58-6.26,3.51.66,1.18ZM246.86,114.44l.72,1.28c.16.28.21.55.15.81-.06.26-.22.46-.49.62l-.09.05c-.27.15-.53.18-.78.1-.25-.09-.46-.27-.61-.55l-.72-1.28,1.82-1.02Z"/>
  <polygon class="cls-1" points="244.69 122.75 247.3 121.29 248.6 123.62 246 125.07 246.66 126.25 252.92 122.75 252.26 121.57 249.67 123.02 248.37 120.69 250.96 119.24 250.29 118.06 244.03 121.57 244.69 122.75"/>
  <polygon class="cls-1" points="249.61 131.53 250.68 130.93 249.06 128.03 250.61 127.17 252.06 129.76 253.13 129.16 251.68 126.57 253.18 125.73 254.77 128.57 255.84 127.97 253.59 123.95 247.33 127.45 249.61 131.53"/>
  <path class="cls-1" d="M255.69,130.13l-4.19,2.34-.46-.82-1.04.58,1.44,2.58c.47.84,1.04,1.36,1.71,1.56.67.2,1.43.06,2.27-.41l1.18-.66c.84-.47,1.35-1.04,1.53-1.72.18-.68.04-1.44-.43-2.28l-1.44-2.58-1.04.58.46.82ZM256.31,131.33l.33.59c.27.48.34.9.21,1.25-.12.36-.42.67-.87.92l-1.25.7c-.45.25-.87.34-1.24.26-.37-.08-.69-.36-.96-.84l-.33-.59,4.11-2.3Z"/>
  <path class="cls-1" d="M255.74,136.9c-.8.45-1.29,1.03-1.46,1.74-.17.71-.04,1.45.4,2.24.44.79,1.01,1.29,1.7,1.52.69.22,1.44.11,2.25-.34l1.5-.84c.8-.45,1.29-1.03,1.46-1.74.17-.71.04-1.45-.4-2.24-.44-.79-1.01-1.29-1.7-1.52-.69-.22-1.44-.11-2.25.34l-1.5.84ZM259.17,137.01c.4.1.71.37.96.81.25.44.31.86.19,1.24-.12.39-.39.7-.82.94l-1.57.88c-.43.24-.84.31-1.23.21-.39-.1-.71-.37-.96-.81-.24-.44-.31-.85-.19-1.24s.39-.71.82-.95l1.57-.88c.43-.24.84-.31,1.24-.2Z"/>
  <polygon class="cls-1" points="257.47 145.57 262.93 142.52 263.02 142.68 258.26 146.98 259.51 149.22 265.78 145.72 265.13 144.56 259.67 147.61 259.58 147.45 264.34 143.15 263.08 140.91 256.82 144.41 257.47 145.57"/>
  <path class="cls-1" d="M262.11,153.86l2.29-1.28.78,1.4c.21.38.48.68.81.89.33.21.68.33,1.07.34.39.01.78-.09,1.16-.3l.12-.07c.39-.22.69-.5.88-.83.19-.33.28-.69.27-1.08-.01-.39-.13-.78-.35-1.17l-1.44-2.58-6.26,3.51.66,1.18ZM267.3,150.96l.72,1.28c.16.28.21.55.15.81-.06.26-.22.46-.49.62l-.09.05c-.27.15-.53.18-.78.1-.25-.09-.46-.27-.61-.55l-.72-1.28,1.82-1.02Z"/>
  <path class="cls-1" d="M265.14,159.26l2.36-1.32.92,1.65c.1.17.12.32.07.45-.05.12-.14.23-.29.31l-1.88,1.05.66,1.18,2.05-1.15c.25-.14.41-.32.49-.53.08-.22.06-.45-.07-.69l.16-.09c.25.2.55.33.88.38.33.05.69-.03,1.06-.24l.11-.06c.34-.19.59-.44.75-.74s.23-.64.2-1.01c-.03-.37-.15-.75-.37-1.14l-1.52-2.72-6.26,3.51.66,1.18ZM270.32,156.36l.79,1.41c.16.29.21.55.14.79s-.22.43-.47.57l-.09.05c-.25.14-.5.17-.74.1-.24-.07-.44-.25-.6-.53l-.79-1.41,1.75-.98Z"/>
  <path class="cls-1" d="M269.94,162.27c-.8.45-1.29,1.03-1.46,1.74-.17.71-.04,1.45.4,2.24.44.79,1.01,1.29,1.7,1.52.69.22,1.44.11,2.25-.34l1.5-.84c.8-.45,1.29-1.03,1.46-1.74.17-.71.04-1.45-.4-2.24-.44-.79-1.01-1.29-1.7-1.52-.69-.22-1.44-.11-2.25.34l-1.5.84ZM273.38,162.39c.4.1.71.37.96.81.25.44.31.86.19,1.24-.12.39-.39.7-.82.94l-1.57.88c-.43.24-.84.31-1.23.21-.39-.1-.71-.37-.96-.81-.24-.44-.31-.85-.19-1.24s.39-.71.82-.95l1.57-.88c.43-.24.84-.31,1.24-.2Z"/>
  <path class="cls-1" d="M271.69,170.96l2.29-1.28.78,1.4c.21.38.48.68.81.89.33.21.68.33,1.07.34s.78-.09,1.16-.3l.12-.07c.39-.22.69-.5.88-.83.19-.33.28-.69.27-1.08s-.13-.78-.35-1.17l-1.44-2.58-6.26,3.51.66,1.18ZM276.87,168.06l.72,1.28c.16.28.21.55.15.81-.06.26-.22.46-.49.62l-.09.05c-.27.15-.53.18-.78.1-.25-.09-.46-.27-.61-.55l-.72-1.28,1.82-1.02Z"/>
  <polygon class="cls-1" points="276.33 179.27 277.41 178.67 275.79 175.77 277.33 174.9 278.79 177.5 279.86 176.9 278.41 174.3 279.9 173.47 281.49 176.31 282.56 175.71 280.31 171.69 274.05 175.19 276.33 179.27"/>
  <path class="cls-1" d="M277.49,181.32l2.36-1.32.92,1.65c.1.17.12.32.07.45s-.14.23-.29.31l-1.88,1.05.66,1.18,2.05-1.15c.25-.14.42-.32.49-.53s.06-.45-.07-.69l.16-.09c.25.2.55.33.88.38.33.05.69-.03,1.06-.24l.11-.06c.34-.19.59-.44.75-.74.16-.3.23-.64.2-1.01-.03-.37-.15-.75-.37-1.14l-1.52-2.72-6.26,3.51.66,1.18ZM282.67,178.42l.79,1.41c.16.29.21.55.14.79s-.22.43-.47.57l-.09.05c-.25.14-.5.17-.74.1-.24-.07-.44-.25-.6-.53l-.79-1.41,1.75-.98Z"/>
  <polygon class="cls-1" points="285.99 184.35 280.8 187.25 281.46 188.43 286.65 185.53 287.67 187.35 288.75 186.75 286.04 181.92 284.97 182.52 285.99 184.35"/>
  <polygon class="cls-1" points="283.84 192.67 284.5 193.85 286.66 192.65 291.95 192.48 291.22 191.16 287.79 191.34 287.7 191.18 289.64 188.36 288.91 187.04 285.99 191.47 283.84 192.67"/>
  <polygon class="cls-1" points="289.69 202.93 290.75 202.31 289.07 199.49 294.18 196.45 293.49 195.28 287.32 198.95 289.69 202.93"/>
  <rect class="cls-1" x="289.99" y="201.78" width="7.18" height="1.35" transform="translate(-62.24 178.6) rotate(-30.75)"/>
  <polygon class="cls-1" points="292.22 207.19 297.53 204.02 297.63 204.18 292.94 208.4 294.09 210.32 300.03 208.22 300.12 208.38 294.81 211.54 295.48 212.66 301.65 208.99 300.36 206.84 294.36 208.97 294.26 208.81 299 204.55 297.72 202.39 291.55 206.06 292.22 207.19"/>
  <rect class="cls-1" x="296.01" y="211.9" width="7.17" height="1.35" transform="translate(-66.57 183.12) rotate(-30.76)"/>
  <polygon class="cls-1" points="303.51 214.54 298.41 217.58 299.1 218.74 304.21 215.7 305.28 217.5 306.33 216.87 303.5 212.11 302.45 212.74 303.51 214.54"/>
  <polygon class="cls-1" points="303.03 225.35 304.09 224.73 302.39 221.87 303.92 220.96 305.44 223.52 306.49 222.89 304.97 220.34 306.45 219.46 308.11 222.26 309.17 221.63 306.81 217.67 300.64 221.34 303.03 225.35"/>
  <path class="cls-1" d="M309.07,223.79l-4.12,2.45-.48-.81-1.02.61,1.51,2.54c.49.83,1.08,1.33,1.75,1.51.68.18,1.43.03,2.26-.47l1.16-.69c.83-.49,1.32-1.08,1.49-1.76.16-.68,0-1.44-.49-2.26l-1.51-2.54-1.02.61.48.81ZM309.72,224.97l.35.58c.28.47.36.89.25,1.25s-.4.68-.85.95l-1.23.73c-.45.27-.86.36-1.23.29s-.7-.34-.98-.81l-.35-.58,4.05-2.41Z"/>
  <rect class="cls-1" x="310.68" y="232.56" width="1.17" height="3.03" transform="translate(-75.93 192.17) rotate(-30.77)"/>
  <polygon class="cls-1" points="82 277.92 64.64 308.93 46.47 339.46 82 338.99 117.53 339.46 99.36 308.93 82 277.92"/>
  <polygon class="cls-1" points="283.01 339.46 318.54 338.99 354.07 339.46 335.9 308.93 318.54 277.92 301.18 308.93 283.01 339.46"/>
  <polygon class="cls-1" points="235.4 134.42 217.23 103.88 199.87 72.88 182.51 103.88 164.34 134.42 199.87 133.95 235.4 134.42"/>
</svg>