<?xml version="1.0" encoding="utf-8"?>
<!-- Generator: Adobe Illustrator 28.1.0, SVG Export Plug-In . SVG Version: 6.00 Build 0)  -->
<svg version="1.1" id="Calque_1" xmlns="http://www.w3.org/2000/svg" xmlns:xlink="http://www.w3.org/1999/xlink" x="0px" y="0px"
	 viewBox="0 0 800 800" style="enable-background:new 0 0 800 800;" xml:space="preserve">
<g>
	<path class="st0" d="M400,760.05L88.19,580.03V219.97L400,39.95l311.81,180.03v360.05L400,760.05z M110.43,567.18L400,734.37
		l289.57-167.18V232.82L400,65.63L110.43,232.82V567.18z"/>
	<g>
		<g>
			<path class="st0" d="M294.53,320.37c-13.53,0-24.54,11.01-24.54,24.54s11.01,24.54,24.54,24.54c13.53,0,24.54-11.01,24.54-24.54
				S308.06,320.37,294.53,320.37z"/>
		</g>
		<g>
			<path class="st0" d="M294.53,414.99c-13.53,0-24.54,11.01-24.54,24.54c0,13.53,11.01,24.54,24.54,24.54
				c13.53,0,24.54-11.01,24.54-24.54C319.07,426,308.06,414.99,294.53,414.99z"/>
		</g>
		<g>
			<g>
				<path class="st0" d="M328.37,430.19c3.09,1.38,8.7,3.4,15.69,3.14c17.4-0.7,41.51-15.44,41.51-41.3
					c0-22.77-18.53-41.3-41.3-41.3c-6.88,0-12.43,1.73-15.79,3.12c-3.97,15.05-17.66,26.2-33.95,26.2
					c-16.97,0-31.16-12.09-34.43-28.1c-11.25,7.82-18.62,20.81-18.62,35.55v0c0,15.85,8.54,29.66,21.24,37.21
					c5.61-11.97,17.74-20.31,31.81-20.31C310.66,404.39,324.26,415.34,328.37,430.19z"/>
			</g>
			<g>
				<path class="st0" d="M347.98,277.26L347.98,277.26c-20.83,0-38.22,14.72-42.35,34.33c13.14,4.39,22.86,16.33,23.93,30.66
					c3.98-1.16,9-2.13,14.71-2.13c20.79,0,38.72,12.32,47,30.02v-49.6C391.26,296.64,371.88,277.26,347.98,277.26z"/>
			</g>
			<g>
				<path class="st0" d="M344.48,443.92c-0.57,0.02-1.15,0.03-1.72,0.03c-4.43,0-8.86-0.77-13.26-2.13
					c-0.85,12.96-8.69,24.02-19.85,29.38c7.24,13.78,21.67,23.18,38.32,23.18h0c23.91,0,43.29-19.38,43.29-43.29v-37.67
					C381.87,432.58,360.81,443.27,344.48,443.92z"/>
			</g>
		</g>
		<g>
			<path class="st0" d="M350.33,507.93h-2.36c-10.2,0-19.57-3.55-26.97-9.46v2.57c0,19.4,15.73,35.13,35.13,35.13
				s35.13-15.73,35.13-35.13v-22.41C385.44,495.67,369.34,507.93,350.33,507.93z"/>
		</g>
		<g>
			<path class="st0" d="M505.47,320.37c13.53,0,24.54,11.01,24.54,24.54s-11.01,24.54-24.54,24.54c-13.53,0-24.54-11.01-24.54-24.54
				S491.94,320.37,505.47,320.37z"/>
		</g>
		<g>
			<path class="st0" d="M505.47,414.99c13.53,0,24.54,11.01,24.54,24.54c0,13.53-11.01,24.54-24.54,24.54
				c-13.53,0-24.54-11.01-24.54-24.54C480.93,426,491.94,414.99,505.47,414.99z"/>
		</g>
		<g>
			<g>
				<path class="st0" d="M471.63,430.19c-3.09,1.38-8.7,3.4-15.69,3.14c-17.4-0.7-41.51-15.44-41.51-41.3
					c0-22.77,18.53-41.3,41.3-41.3c6.88,0,12.43,1.73,15.79,3.12c3.97,15.05,17.66,26.2,33.95,26.2c16.97,0,31.16-12.09,34.43-28.1
					c11.25,7.82,18.62,20.81,18.62,35.55v0c0,15.85-8.54,29.66-21.24,37.21c-5.61-11.97-17.74-20.31-31.81-20.31
					C489.34,404.39,475.74,415.34,471.63,430.19z"/>
			</g>
			<g>
				<path class="st0" d="M452.03,277.26L452.03,277.26c20.83,0,38.22,14.72,42.35,34.33c-13.14,4.39-22.86,16.33-23.93,30.66
					c-3.98-1.16-9-2.13-14.71-2.13c-20.79,0-38.72,12.32-47,30.02v-49.6C408.74,296.64,428.12,277.26,452.03,277.26z"/>
			</g>
			<g>
				<path class="st0" d="M455.52,443.92c0.57,0.02,1.15,0.03,1.72,0.03c4.43,0,8.86-0.77,13.26-2.13
					c0.85,12.96,8.69,24.02,19.85,29.38c-7.24,13.78-21.67,23.18-38.32,23.18h0c-23.91,0-43.29-19.38-43.29-43.29v-37.67
					C418.13,432.58,439.19,443.27,455.52,443.92z"/>
			</g>
		</g>
		<g>
			<path class="st0" d="M449.67,507.93h2.36c10.2,0,19.57-3.55,26.97-9.46v2.57c0,19.4-15.73,35.13-35.13,35.13
				s-35.13-15.73-35.13-35.13v-22.41C414.56,495.67,430.67,507.93,449.67,507.93z"/>
		</g>
	</g>
	<path class="st0" d="M595.6,500.09V287.07L400,174.14L215.52,280.65l-37.02-21.37L400,131.4l238.18,137.51l11.12-19.27L400,105.71
		L134.01,259.28l70.38,40.64v213.02L400,625.86l184.48-106.51l37.01,21.37L400,668.6L161.82,531.09l-11.12,19.26L400,694.29
		l265.99-153.57L595.6,500.09z M226.64,500.09V299.91L400,199.82l173.36,100.09v200.18L400,600.18L226.64,500.09z"/>
</g>
</svg>
