<?xml version="1.0" encoding="utf-8"?>
<!-- Generator: Adobe Illustrator 28.1.0, SVG Export Plug-In . SVG Version: 6.00 Build 0)  -->
<svg version="1.1" id="Calque_1" xmlns="http://www.w3.org/2000/svg" xmlns:xlink="http://www.w3.org/1999/xlink" x="0px" y="0px"
	 viewBox="0 0 270 270" style="enable-background:new 0 0 270 270;" xml:space="preserve">
<style type="text/css">
	.st0{fill:#2C8C93;}
</style>
<g>
	<path class="st0" d="M46.72,69.41c-10.09,0-18.3,8.21-18.3,18.3s8.21,18.3,18.3,18.3c10.09,0,18.31-8.21,18.31-18.3
		S56.82,69.41,46.72,69.41z"/>
	<path class="st0" d="M46.72,148.61c-10.09,0-18.3,8.21-18.3,18.31c0,10.09,8.21,18.3,18.3,18.3c10.09,0,18.31-8.21,18.31-18.3
		C65.03,156.82,56.82,148.61,46.72,148.61z"/>
	<g>
		<path class="st0" d="M88.35,94.82c-4.72,0-8.66,1.04-11.37,2.05c-4.02,13.3-16.31,22.49-30.26,22.49
			c-13.8,0-25.96-9.04-30.12-21.94c-7.6,6.43-12.05,15.91-12.05,25.94c0,11.12,5.57,21.62,14.69,27.94
			c5.6-9.81,16.12-16.03,27.48-16.03c13.8,0,26.05,9.07,30.17,22.18c3.68,1.49,7.44,2.18,11.2,2.04
			c13.66-0.55,32.59-12.09,32.59-32.33C120.69,109.32,106.18,94.82,88.35,94.82z"/>
		<path class="st0" d="M91.46,33.33c-15.34,0-28.84,10.44-32.81,25.09c10.28,4.18,17.57,13.36,19.31,24.26
			c3.44-0.8,6.92-1.21,10.39-1.21c14.79,0,28.61,7.31,37.1,19.14V67.33C125.45,48.58,110.2,33.33,91.46,33.33z"/>
		<path class="st0" d="M125.45,176.59v-23.65c-9.37,12.48-24.74,19.38-36.83,19.87h-0.01c-3.46,0.13-7.01-0.23-10.68-1.13
			c-1.45,9.48-7.15,17.84-15.46,22.63c6.17,10.09,17.08,16.27,28.99,16.27C110.2,210.59,125.45,195.34,125.45,176.59z"/>
	</g>
	<path class="st0" d="M125.45,209.19c-7.01,10.56-18.94,17.19-32.02,17.19h-1.97c-7.26,0-14.18-1.98-20.24-5.77
		c1.14,13.94,12.85,24.94,27.08,24.94c14.98,0,27.17-12.19,27.17-27.17V209.19z"/>
	<path class="st0" d="M223.28,69.41c-10.09,0-18.31,8.21-18.31,18.3s8.21,18.3,18.31,18.3c10.09,0,18.3-8.21,18.3-18.3
		S233.37,69.41,223.28,69.41z"/>
	<path class="st0" d="M223.28,148.61c-10.09,0-18.31,8.21-18.31,18.31c0,10.09,8.21,18.3,18.31,18.3c10.09,0,18.3-8.21,18.3-18.3
		C241.58,156.82,233.37,148.61,223.28,148.61z"/>
	<g>
		<path class="st0" d="M253.4,97.42c-4.16,12.9-16.32,21.94-30.12,21.94c-13.95,0-26.24-9.19-30.26-22.49
			c-2.71-1.01-6.65-2.05-11.37-2.05c-17.83,0-32.33,14.5-32.33,32.33c0,20.25,18.93,31.79,32.6,32.33c3.75,0.14,7.52-0.54,11.2-2.04
			c4.12-13.11,16.37-22.18,30.17-22.18c11.35,0,21.88,6.22,27.48,16.03c9.12-6.32,14.69-16.82,14.69-27.94
			C265.44,113.33,260.99,103.85,253.4,97.42z"/>
		<path class="st0" d="M144.55,67.33v33.29c8.49-11.84,22.31-19.14,37.1-19.14c3.47,0,6.96,0.4,10.39,1.21
			c1.74-10.89,9.04-20.08,19.31-24.26c-3.97-14.65-17.47-25.09-32.81-25.09h0C159.8,33.33,144.55,48.58,144.55,67.33z"/>
		<path class="st0" d="M207.53,194.32c-8.31-4.79-14.01-13.15-15.46-22.63c-3.67,0.9-7.23,1.25-10.68,1.13h-0.01
			c-12.09-0.49-27.46-7.39-36.83-19.87v23.65c0,18.74,15.25,34,34,34C190.45,210.59,201.37,204.41,207.53,194.32z"/>
	</g>
	<path class="st0" d="M144.55,209.19v9.2c0,14.98,12.19,27.17,27.17,27.17c14.23,0,25.94-11,27.08-24.94
		c-6.07,3.79-12.99,5.77-20.25,5.77h-1.97C163.49,226.39,151.55,219.76,144.55,209.19z"/>
</g>
</svg>
